<?xml version="1.0" standalone="no"?>
<!DOCTYPE svg PUBLIC "-//W3C//DTD SVG 20010904//EN"
 "http://www.w3.org/TR/2001/REC-SVG-20010904/DTD/svg10.dtd">
<svg version="1.0" xmlns="http://www.w3.org/2000/svg"
 width="1443.000000pt" height="1443.000000pt" viewBox="0 0 1443.000000 1443.000000"
 preserveAspectRatio="xMidYMid meet">
<metadata>
Created by potrace 1.14, written by Peter Selinger 2001-2017
</metadata>
<g transform="translate(0.000000,1443.000000) scale(0.100000,-0.100000)"
fill="#000000" stroke="none">
<path d="M0 12149 l0 -2282 107 7 c60 3 133 2 163 -2 l55 -8 -42 -13 c-24 -6
-67 -11 -95 -11 -29 0 -60 1 -68 1 -8 0 -39 -1 -68 -1 l-52 -2 0 -2069 0
-2069 153 -1 c309 -3 369 0 399 22 l27 19 16 -29 c9 -19 11 -32 5 -36 -5 -3
-110 -6 -232 -5 -123 1 -256 1 -295 1 l-73 -1 0 -2835 0 -2835 1817 0 1816 0
37 40 c30 32 44 40 72 40 39 0 53 -11 63 -53 l7 -27 925 0 926 0 -28 22 c-105
83 -51 308 84 349 39 12 47 11 79 -7 60 -33 77 -65 77 -147 -1 -60 -6 -81 -30
-126 -17 -30 -43 -63 -60 -73 -30 -18 -27 -18 212 -18 194 0 241 3 237 13 -2
7 1 44 7 82 14 90 14 92 5 210 -7 90 -7 98 8 86 13 -11 17 -11 22 3 4 11 13
15 25 11 11 -4 19 -2 19 5 0 6 17 18 38 27 20 8 45 22 56 31 10 10 20 16 22
15 2 -2 5 -3 7 -2 1 0 15 3 30 5 15 3 42 14 60 24 18 11 42 20 55 20 12 0 22
4 22 9 0 5 9 11 20 14 23 6 28 37 6 37 -8 0 -21 -7 -30 -15 -20 -21 -29 -19
-21 5 4 14 2 20 -9 20 -8 0 -18 -4 -21 -10 -3 -5 -14 -10 -23 -10 -15 1 -14 3
3 16 16 12 17 16 6 23 -7 5 -10 14 -7 20 11 17 2 13 -24 -9 -29 -26 -36 -25
-44 2 -5 19 -8 20 -15 9 -8 -12 -18 -13 -55 -4 -32 7 -48 7 -57 -1 -8 -8 -13
-8 -16 1 -3 9 -11 8 -29 -3 -13 -9 -24 -15 -25 -13 -4 15 -5 106 -2 112 3 4
10 4 16 -1 15 -11 35 -9 72 7 17 7 38 13 47 14 9 1 19 10 22 20 3 14 11 18 26
14 12 -3 34 -1 49 5 14 6 55 21 91 34 36 12 64 27 63 32 -3 11 26 24 43 21 18
-3 34 1 34 10 0 5 -20 8 -45 7 -33 -1 -45 -5 -45 -16 0 -13 -2 -13 -9 -1 -5 8
-7 21 -4 29 5 12 2 12 -15 3 -29 -15 -35 -14 -50 10 -8 12 -9 18 -4 15 5 -3
15 1 23 10 10 12 9 18 -4 31 -14 15 -18 14 -47 -11 -36 -30 -46 -32 -54 -11
-3 8 -2 14 2 13 19 -4 40 15 34 30 -5 15 -4 15 11 3 14 -11 20 -11 32 -1 17
14 9 34 -10 26 -7 -2 -16 2 -19 9 -3 8 -12 12 -20 9 -8 -3 -17 -1 -20 5 -4 7
-15 7 -31 1 -28 -11 -49 -5 -84 22 -18 14 -27 15 -37 7 -9 -8 -14 -8 -14 -1 0
6 6 13 13 16 10 5 10 7 0 12 -14 6 -17 44 -7 81 4 13 10 20 15 17 12 -7 12 29
0 41 -5 6 -11 44 -14 85 -3 41 -10 98 -15 125 -8 44 -7 56 15 100 30 62 83
309 83 391 0 33 9 94 19 135 11 41 22 117 25 169 4 52 11 115 16 140 13 64 12
228 -2 267 -10 28 -9 42 10 95 30 85 43 313 39 668 -2 217 -6 280 -17 300 -11
18 -15 64 -16 175 -1 174 -18 470 -33 600 -15 132 -81 365 -121 430 -10 16
-27 56 -38 87 -18 52 -118 233 -147 268 -12 14 -51 84 -96 172 -20 39 -25 73
-10 64 5 -4 11 -1 13 5 2 7 12 7 30 0 15 -6 29 -7 31 -3 8 14 -30 67 -51 70
-12 2 -22 10 -22 17 0 7 -8 21 -17 30 -14 14 -18 15 -27 4 -18 -23 -66 -20
-97 5 -40 34 -123 59 -170 53 -21 -3 -42 -1 -45 4 -3 5 -14 9 -24 9 -17 0 -54
36 -62 61 -4 12 -20 12 -106 5 -49 -4 -64 -2 -69 9 -6 18 -25 19 -41 3 -8 -8
-44 -14 -90 -15 -281 -8 -301 -9 -317 -23 -13 -11 -23 -11 -50 -1 -32 11 -127
31 -150 32 -24 0 -93 -19 -121 -34 -34 -18 -148 -17 -167 2 -6 6 -28 11 -49
11 -31 0 -41 -5 -50 -25 -6 -14 -14 -25 -18 -25 -13 0 -40 48 -40 71 0 11 -9
32 -19 45 -34 43 -36 93 -5 153 18 33 37 57 53 63 14 5 33 15 41 22 8 8 40 21
70 31 65 21 106 42 140 71 14 12 39 25 56 29 31 6 32 8 27 45 -5 36 -2 43 42
87 47 47 81 94 119 163 10 19 27 40 36 47 10 7 20 26 24 44 3 18 13 33 24 36
11 2 32 25 47 50 16 24 39 53 52 63 13 10 23 22 23 26 0 8 25 37 69 77 13 12
34 33 45 46 12 13 33 37 49 53 15 16 48 65 73 108 26 44 53 85 60 91 8 6 14
18 14 26 0 21 68 101 98 116 16 7 29 25 34 46 7 23 18 36 37 44 16 6 32 21 37
35 6 16 22 29 44 36 27 8 36 18 40 40 4 21 13 32 35 40 17 6 46 26 65 44 19
17 40 32 47 32 6 0 24 -17 40 -37 15 -21 45 -55 66 -75 21 -21 33 -38 25 -38
-17 -1 32 -29 51 -30 7 0 29 -9 47 -21 35 -21 37 -49 2 -49 -10 0 -16 -4 -13
-10 3 -5 17 -10 31 -10 13 0 24 5 24 10 0 33 74 -18 81 -55 2 -11 14 -24 27
-30 12 -5 22 -13 22 -17 0 -5 9 -8 20 -8 19 0 23 -6 23 -42 0 -10 6 -18 13
-18 8 0 14 -4 14 -10 0 -5 11 -10 24 -10 13 0 29 -7 36 -15 10 -12 10 -15 -4
-15 -19 0 -21 -19 -3 -26 8 -3 14 -19 15 -36 1 -25 -5 -32 -29 -41 -16 -6 -29
-15 -29 -19 0 -12 28 -10 35 2 3 6 15 10 27 10 11 0 22 8 25 20 3 11 12 20 19
20 17 0 18 -12 2 -28 -7 -7 -9 -13 -5 -13 4 -1 12 -3 17 -4 6 -1 14 -3 20 -4
5 0 21 -13 35 -28 21 -24 27 -26 35 -13 5 8 10 10 10 5 0 -6 -6 -17 -12 -24
-14 -14 18 -12 102 5 32 6 34 6 21 -10 -18 -22 -6 -34 19 -18 25 16 30 15 30
-3 0 -17 -42 -30 -66 -21 -11 4 -14 1 -12 -11 4 -22 53 -27 72 -7 19 18 30 2
22 -32 -6 -21 -2 -25 23 -30 20 -4 28 -11 24 -20 -4 -10 3 -14 21 -14 20 0 26
-5 27 -22 3 -60 4 -63 23 -60 10 2 30 1 43 -3 19 -4 22 -9 14 -19 -16 -19 -4
-25 40 -19 31 5 39 2 39 -10 0 -10 6 -13 20 -10 13 4 20 0 20 -10 0 -11 -10
-14 -42 -11 -24 1 -43 3 -43 4 0 1 -7 3 -15 5 -8 2 -25 7 -37 11 -17 5 -23 2
-23 -9 0 -8 -6 -18 -12 -21 -7 -3 10 -4 38 -1 38 4 54 2 64 -10 7 -8 23 -15
36 -15 13 0 24 -6 24 -13 0 -7 14 -20 32 -28 17 -8 33 -22 34 -31 2 -20 -7
-23 -21 -9 -16 15 -85 25 -85 12 0 -6 11 -13 25 -17 21 -5 23 -9 13 -21 -6 -8
-25 -21 -41 -29 l-29 -16 22 -23 c12 -13 33 -26 46 -29 14 -4 22 -11 19 -16
-4 -6 9 -10 29 -10 20 0 36 -4 36 -9 0 -11 -25 -21 -51 -21 -33 0 -21 -17 18
-25 20 -3 49 -18 64 -32 23 -23 26 -30 17 -55 -6 -16 -20 -31 -33 -34 -17 -4
-22 -12 -21 -32 1 -15 4 -32 8 -37 3 -6 4 -22 1 -37 -5 -24 -9 -27 -31 -21
-16 4 -23 2 -18 -5 3 -6 -1 -18 -11 -27 -14 -15 -14 -18 -2 -25 20 -12 57 -43
41 -35 -18 10 -58 -34 -54 -59 3 -15 -1 -18 -18 -13 -17 4 -19 3 -10 -8 7 -8
9 -19 5 -25 -7 -12 18 -40 37 -40 10 0 9 -3 -2 -10 -20 -13 -41 -12 -38 1 2 6
-3 14 -9 16 -26 9 -12 -31 20 -58 35 -31 21 -39 -28 -17 -14 6 -28 8 -32 4
-12 -11 11 -25 49 -29 20 -2 44 -9 52 -16 13 -11 19 -11 32 0 11 9 17 10 22 1
13 -20 197 -24 342 -8 74 8 166 18 204 22 67 6 120 24 111 38 -3 3 1 2 7 -4
15 -12 58 -13 77 -1 11 7 10 11 -7 20 -11 6 -32 11 -45 11 -20 0 -24 4 -21 26
1 15 8 31 15 35 8 4 10 11 7 15 -4 3 -14 -1 -23 -10 -13 -12 -21 -13 -36 -5
-11 5 -17 14 -14 19 3 5 1 12 -5 15 -8 5 -7 11 1 22 10 11 9 20 -4 43 -12 20
-14 31 -6 35 13 9 -23 45 -46 45 -21 0 -19 -12 8 -35 l22 -20 -22 -3 c-13 -2
-23 -8 -23 -13 0 -6 -5 -7 -10 -4 -6 4 -8 15 -5 25 5 17 1 19 -33 17 -34 -2
-42 2 -55 25 -13 22 -13 28 -3 28 8 0 19 7 26 15 9 11 9 19 -3 35 -12 18 -15
18 -20 5 -4 -8 -11 -15 -16 -15 -6 0 -8 6 -5 14 4 11 0 13 -18 9 -18 -4 -15 1
15 22 20 16 37 32 37 37 0 4 7 8 15 8 20 0 19 6 -7 32 -19 19 -22 19 -32 6
-14 -19 -62 -13 -70 9 -5 12 -1 14 18 9 25 -6 51 14 28 22 -26 8 -39 32 -34
59 7 39 33 77 42 63 11 -18 23 6 15 30 -5 15 -15 20 -41 20 -33 0 -46 13 -21
23 23 10 -16 28 -50 23 -20 -3 -36 1 -44 10 -10 12 -7 13 18 8 23 -4 32 -2 36
11 4 9 11 13 17 10 5 -3 10 1 10 9 0 15 -12 21 -33 17 -21 -4 2 24 24 30 23 6
23 7 -13 24 -21 10 -38 23 -38 28 0 5 6 5 13 -2 10 -8 17 -7 25 1 14 14 16 48
3 48 -5 0 -11 9 -14 20 -3 11 0 20 6 20 9 0 8 3 0 8 -9 6 -7 12 7 25 11 9 25
17 30 17 6 0 10 5 10 11 0 6 -7 9 -15 5 -12 -4 -12 -1 2 21 l17 26 -29 -7
c-28 -6 -29 -5 -11 9 10 8 22 12 27 10 10 -7 59 16 59 27 0 4 5 8 10 8 15 0
12 -21 -7 -42 -15 -17 -15 -18 0 -18 21 0 22 -19 2 -26 -23 -9 -18 -27 6 -21
12 3 31 2 43 -3 18 -7 26 -2 45 26 13 18 27 31 32 28 5 -3 9 -1 9 5 0 5 -4 13
-10 16 -5 3 -10 1 -10 -4 0 -20 -31 -11 -39 12 -7 17 -4 28 15 48 13 14 24 33
24 42 0 10 6 17 13 16 30 -4 47 2 47 16 0 8 -4 15 -10 15 -5 0 -10 -4 -10 -10
0 -15 -26 -12 -39 3 -14 17 -2 30 14 17 15 -13 45 -2 45 15 0 9 14 15 37 17
41 3 55 23 22 31 -31 8 -12 30 21 25 22 -3 30 0 34 16 5 17 8 18 15 6 7 -9 6
-19 -2 -29 -10 -11 -8 -13 11 -7 17 6 22 3 22 -9 0 -13 6 -16 23 -11 12 3 34
6 50 6 21 0 30 7 38 27 7 19 13 23 21 15 6 -6 18 -8 27 -4 11 4 8 -4 -9 -25
-14 -18 -31 -30 -37 -28 -7 2 -18 -5 -24 -16 -8 -16 -13 -18 -25 -9 -19 17
-50 5 -35 -14 12 -15 5 -46 -11 -46 -5 0 -7 -4 -4 -9 4 -5 -3 -7 -14 -4 -25 7
-26 19 -1 32 13 7 17 18 14 36 -6 28 -13 31 -31 13 -6 -6 -32 -11 -57 -10 -25
0 -47 -3 -50 -8 -8 -14 40 -39 56 -29 34 21 42 7 11 -20 -17 -17 -32 -37 -32
-46 0 -33 -20 -55 -50 -55 -19 0 -33 -7 -40 -20 -10 -19 -9 -20 14 -14 15 3
26 2 26 -3 0 -15 -23 -33 -42 -33 -10 0 -18 -6 -18 -14 0 -8 -20 -19 -47 -26
-27 -6 -54 -14 -61 -16 -8 -2 -12 -11 -10 -21 4 -23 47 -24 71 0 10 10 25 20
32 21 7 1 20 8 29 15 9 8 37 18 62 22 26 5 52 16 58 25 7 9 21 14 32 12 13 -2
20 3 22 19 2 12 11 25 21 28 10 3 27 14 40 26 24 23 91 38 91 21 0 -6 -4 -14
-10 -17 -5 -3 -10 -2 -10 3 0 17 -39 1 -45 -19 -4 -10 -18 -24 -32 -31 -32
-16 -40 -36 -19 -44 9 -4 24 4 38 20 25 28 68 39 75 19 3 -8 -4 -13 -19 -13
-27 -1 -58 -22 -58 -40 0 -8 6 -10 18 -5 82 34 90 33 71 -9 -10 -20 -10 -29
-1 -38 9 -9 12 -8 12 5 0 9 4 17 9 17 5 0 9 13 9 28 -1 15 4 37 10 49 6 11 8
23 5 27 -3 3 1 6 10 6 10 0 17 7 17 17 0 15 -2 14 -20 -2 -10 -9 -26 -15 -35
-11 -13 5 -9 12 20 37 22 19 35 40 35 55 0 17 6 24 19 24 10 0 26 11 35 25 14
22 15 25 1 25 -19 0 -19 20 1 48 14 20 14 22 0 22 -9 0 -16 -6 -16 -14 0 -16
-27 -29 -41 -20 -16 10 -9 36 11 41 11 3 20 11 20 19 0 7 11 16 25 20 14 3 25
13 25 21 0 12 -8 14 -35 10 -26 -4 -35 -2 -35 8 0 7 -4 15 -10 17 -6 2 -5 9 1
18 8 11 12 12 16 2 2 -6 9 -10 14 -6 5 3 12 -2 15 -11 5 -13 9 -13 22 -3 12
10 16 10 19 1 8 -22 33 -14 45 13 8 18 9 27 1 32 -6 4 -12 16 -15 27 -3 15
-11 20 -36 19 -21 -1 -32 3 -32 11 0 18 11 24 49 27 25 2 31 6 28 20 -6 22 12
37 52 42 18 2 38 9 44 15 12 12 4 14 -50 11 -38 -2 -39 1 -17 35 15 23 15 25
0 25 -22 0 -20 17 4 32 24 15 26 43 5 52 -8 3 -14 15 -12 28 1 14 -4 23 -15
26 -10 2 -18 -2 -18 -10 0 -7 -12 -18 -26 -25 -22 -10 -24 -10 -14 2 17 21
-14 31 -46 16 -30 -13 -45 -14 -25 -2 12 8 12 12 2 24 -9 12 -9 17 0 22 6 4
15 1 20 -6 8 -13 69 -20 69 -8 0 3 9 15 21 28 24 26 17 41 -11 23 -16 -10 -24
-10 -40 0 -31 20 -24 30 18 26 32 -3 37 0 40 20 3 21 12 26 41 22 8 -1 17 2
20 7 3 4 15 13 25 19 24 13 37 57 32 106 -3 22 0 39 7 42 8 3 9 7 2 13 -11 9
-13 33 -3 49 4 6 7 58 7 115 -1 135 -1 135 9 124 5 -6 17 -68 27 -139 16 -115
21 -133 44 -152 21 -18 29 -20 48 -11 17 8 27 7 35 -1 7 -7 19 -12 28 -12 9 0
25 -9 35 -20 13 -15 31 -20 65 -20 38 0 51 -5 75 -30 21 -22 38 -30 63 -30 19
0 46 -9 61 -20 45 -32 163 -90 182 -90 10 0 21 -5 24 -10 7 -12 123 -90 133
-90 4 0 25 -23 47 -50 24 -30 48 -50 60 -50 20 0 85 -69 85 -89 0 -6 16 -17
35 -25 27 -12 34 -20 32 -38 -1 -17 7 -26 34 -40 20 -9 46 -33 57 -52 11 -19
36 -42 54 -52 28 -14 81 -63 90 -83 2 -3 23 -16 48 -29 38 -19 64 -26 113 -31
4 -1 7 -7 7 -15 0 -16 21 -26 53 -26 12 0 28 -9 35 -20 7 -11 18 -20 26 -20
26 0 115 -52 121 -71 4 -11 13 -19 20 -19 8 0 22 -11 31 -25 9 -14 25 -25 35
-25 30 0 67 -21 72 -41 3 -11 13 -19 23 -19 9 0 25 -6 33 -13 20 -17 157 -77
174 -77 8 0 24 -11 37 -25 13 -14 31 -25 40 -25 8 0 30 -14 48 -30 18 -17 40
-30 48 -30 7 0 19 -9 26 -20 8 -13 24 -20 44 -20 22 0 39 -9 57 -30 15 -16 37
-30 50 -30 12 0 33 -9 47 -20 15 -12 41 -20 63 -20 30 0 40 -5 44 -19 4 -16
16 -20 71 -23 37 -2 83 -11 102 -20 19 -9 44 -19 55 -22 11 -4 36 -25 55 -48
30 -36 36 -53 45 -122 5 -45 8 -107 5 -140 -5 -53 -9 -62 -44 -92 -68 -59
-118 -77 -227 -82 -88 -4 -100 -3 -128 17 -27 19 -35 21 -70 11 -30 -8 -58 -7
-106 1 -58 11 -67 11 -84 -5 -21 -19 -51 -23 -86 -12 -11 3 -26 2 -34 -3 -12
-8 -13 -14 -3 -35 11 -25 10 -26 -18 -26 -16 0 -32 4 -35 10 -12 19 -33 10
-38 -18 -9 -42 -45 -55 -119 -42 -63 12 -74 8 -80 -24 -1 -10 -11 -24 -20 -30
-19 -11 -38 -7 -169 40 l-77 27 -71 -23 c-70 -22 -72 -22 -92 -4 -12 11 -25
29 -30 42 -5 12 -13 22 -18 22 -8 0 -50 -59 -59 -85 -3 -5 -41 -86 -87 -180
-92 -191 -115 -244 -140 -330 -10 -33 -33 -96 -51 -141 -19 -45 -45 -114 -58
-155 -13 -41 -34 -99 -46 -129 -12 -30 -30 -87 -40 -126 -10 -40 -25 -87 -33
-106 -8 -19 -18 -58 -22 -86 -4 -28 -13 -56 -21 -63 -8 -6 -14 -20 -14 -30 0
-10 -6 -33 -14 -51 -27 -65 -49 -154 -51 -208 -2 -30 -13 -104 -25 -165 -12
-60 -28 -141 -34 -180 -7 -38 -29 -146 -49 -240 -72 -337 -107 -668 -107
-1011 0 -89 -4 -185 -10 -213 -5 -29 -9 -163 -8 -299 2 -266 2 -419 0 -632 -1
-74 0 -169 3 -210 2 -41 7 -208 10 -370 6 -377 12 -484 33 -647 l17 -133 903
0 903 0 -8 38 c-12 57 -8 91 14 120 54 73 170 7 212 -121 l13 -37 1749 0 1749
0 0 91 0 92 -67 -5 c-38 -3 -84 -3 -103 0 -33 5 -34 6 -10 13 14 3 60 4 103 1
l77 -5 0 691 0 691 -22 4 -23 4 23 2 23 1 -1 895 c-1 619 -5 895 -12 895 -7 0
-7 4 0 13 16 19 16 2387 0 2387 -9 0 -9 3 0 12 9 9 12 176 12 690 l0 678 -177
1 c-98 1 -212 0 -253 -1 -57 -1 -72 1 -64 10 8 8 83 12 253 12 l241 0 0 699
c0 689 0 700 -19 689 -25 -13 -68 -13 -76 0 -3 6 5 10 19 10 14 0 37 5 51 12
l25 11 0 1394 0 1393 -22 1 -23 0 23 9 22 9 0 1377 0 1376 -597 -6 c-329 -4
-618 -8 -643 -9 -61 -4 -82 4 -45 16 30 10 231 14 918 19 l367 2 0 128 0 128
-6089 0 c-5543 0 -6089 -1 -6095 -16 -10 -26 -7 -32 24 -48 28 -13 31 -13 41
5 6 11 15 19 21 17 12 -4 48 -104 40 -112 -3 -4 1 -12 10 -19 18 -14 31 -47
18 -47 -5 0 -10 -10 -12 -22 -2 -14 -9 -22 -18 -20 -8 2 -20 -4 -26 -13 -15
-20 -160 -33 -309 -28 -168 5 -360 3 -545 -5 -102 -5 -190 -5 -196 0 -6 5 -19
5 -29 2 -16 -7 -17 -3 -12 33 7 42 -14 124 -39 154 -9 10 -12 32 -9 67 l6 52
-376 0 -376 0 6 -133 c8 -157 10 -153 -94 -169 -75 -11 -121 -5 -121 15 0 6
-7 25 -15 41 -16 31 -12 46 12 46 12 0 13 3 4 14 -6 7 -8 26 -5 45 4 18 2 37
-5 45 -7 8 -13 33 -14 55 l-1 41 -113 0 -113 0 0 -2281z m13015 2021 c3 -5 1
-10 -4 -10 -6 0 -11 5 -11 10 0 6 2 10 4 10 3 0 8 -4 11 -10z m-91 -6 c23 -9
20 -24 -4 -24 -11 0 -20 7 -20 15 0 17 2 18 24 9z m-4006 -32 c2 -7 -6 -12
-17 -12 -21 0 -27 11 -14 24 9 9 26 2 31 -12z m3869 12 c-3 -3 -12 -4 -19 -1
-8 3 -5 6 6 6 11 1 17 -2 13 -5z m-1359 -14 c131 0 211 -4 207 -9 -4 -8 -350
-8 -505 0 l-35 2 40 7 c22 4 49 6 60 4 11 -2 116 -4 233 -4z m337 -1 c17 -1
16 -2 -5 -9 -35 -11 -110 -12 -110 -1 0 15 22 21 60 16 19 -3 44 -5 55 -6z
m-772 -6 c-7 -2 -19 -2 -25 0 -7 3 -2 5 12 5 14 0 19 -2 13 -5z m70 0 c-7 -2
-21 -2 -30 0 -10 3 -4 5 12 5 17 0 24 -2 18 -5z m834 1 c-3 -3 -12 -4 -19 -1
-8 3 -5 6 6 6 11 1 17 -2 13 -5z m-1569 -23 c3 -8 -1 -12 -9 -9 -7 2 -15 10
-17 17 -3 8 1 12 9 9 7 -2 15 -10 17 -17z m232 12 c0 -12 -128 -14 -135 -3 -4
6 21 10 64 10 39 0 71 -3 71 -7z m97 1 c-3 -3 -12 -4 -19 -1 -8 3 -5 6 6 6 11
1 17 -2 13 -5z m-4519 -40 c46 -13 20 -24 -54 -23 -83 1 -88 4 -28 18 50 12
55 12 82 5z m-1425 -23 c8 -8 -7 -11 -48 -11 -53 -1 -577 -1 -598 0 -5 0 -5 5
-2 10 4 6 31 8 63 6 31 -2 109 -1 172 4 145 11 399 5 413 -9z m367 9 c0 -5 -4
-10 -10 -10 -5 0 -10 5 -10 10 0 6 5 10 10 10 6 0 10 -4 10 -10z m776 -2 c3
-5 -159 -8 -360 -7 -201 2 -366 6 -366 11 0 10 720 6 726 -4z m7248 -3 c3 -8
1 -15 -4 -15 -6 0 -10 7 -10 15 0 8 2 15 4 15 2 0 6 -7 10 -15z m-8324 1 c0
-11 -19 -15 -25 -6 -3 5 1 10 9 10 9 0 16 -2 16 -4z m1198 -3 c-10 -2 -28 -2
-40 0 -13 2 -5 4 17 4 22 1 32 -1 23 -4z m-5285 -34 c54 -1 97 -5 97 -10 0 -5
-44 -9 -97 -10 -54 0 -186 -3 -293 -5 -185 -5 -289 0 -276 13 3 4 106 8 228
10 122 2 224 5 226 8 3 2 8 3 12 0 4 -2 50 -5 103 -6z m247 -9 c0 -5 -12 -10
-27 -10 -22 0 -25 2 -13 10 20 13 40 13 40 0z m-859 -11 c-16 -6 -28 -6 -35 1
-7 7 1 10 25 9 32 0 33 -1 10 -10z m3195 -9 c20 0 17 -29 -3 -37 -19 -7 -42
-32 -43 -45 0 -5 8 -8 19 -8 18 0 35 -35 25 -52 -9 -14 -24 -9 -30 10 -22 67
-59 106 -76 80 -13 -21 -9 -35 11 -41 22 -5 25 -43 4 -51 -7 -3 -16 -23 -19
-46 -9 -54 -34 -55 -34 0 0 33 -3 40 -20 40 -22 0 -26 10 -10 26 14 14 3 41
-17 41 -9 0 -18 -9 -21 -19 -2 -10 -10 -17 -16 -15 -15 5 -20 47 -6 47 6 0 9
4 6 9 -6 9 36 41 53 41 5 0 11 -10 13 -22 2 -12 9 -23 16 -26 7 -2 12 0 11 5
-6 36 2 53 29 54 15 0 36 4 47 9 11 5 26 7 33 4 8 -2 20 -4 28 -4z m-273 -20
c4 -4 8 -25 7 -46 -1 -91 -9 -114 -41 -114 -10 0 -19 -6 -19 -14 0 -8 -7 -17
-16 -20 -13 -5 -14 -9 -5 -20 8 -10 9 -16 1 -21 -13 -8 -30 3 -30 21 0 22 -18
16 -22 -8 -4 -29 -24 -34 -31 -8 -5 18 -9 20 -26 11 -16 -9 -24 -7 -40 10
l-19 21 -21 -21 c-28 -28 -28 -51 0 -44 19 5 21 3 17 -20 -4 -21 -1 -27 13
-27 15 0 19 -8 19 -40 0 -40 -13 -53 -24 -24 -9 24 -28 5 -22 -22 5 -20 3 -24
-18 -24 -19 0 -23 -4 -19 -20 3 -11 9 -20 14 -20 5 0 9 -7 9 -15 0 -9 -6 -12
-15 -8 -18 6 -55 -23 -55 -44 0 -17 -10 -17 -24 2 -6 8 -27 16 -46 17 -27 2
-35 -1 -38 -17 -2 -11 -10 -23 -17 -27 -7 -5 -11 -17 -8 -28 7 -26 -13 -26
-27 0 -12 23 -32 27 -24 5 4 -9 0 -15 -10 -15 -9 0 -16 -4 -16 -10 0 -5 -4
-10 -10 -10 -23 0 -90 -36 -90 -48 0 -14 13 -9 40 14 8 7 27 10 43 7 21 -4 26
-10 22 -24 -4 -12 -1 -21 9 -25 21 -8 20 -30 -1 -52 -10 -10 -19 -37 -21 -62
-2 -24 -7 -47 -12 -50 -5 -3 -8 -14 -7 -25 3 -31 -40 -33 -52 -3 -6 13 -10 17
-10 9 -1 -8 -8 -11 -20 -8 -15 4 -18 1 -14 -12 3 -9 10 -22 16 -28 6 -9 4 -15
-9 -19 -11 -4 -28 -17 -40 -31 -25 -30 -49 -23 -63 19 l-11 31 22 -19 c12 -10
18 -14 15 -7 -4 7 1 14 13 18 14 4 20 15 19 33 0 26 -1 26 -9 5 -5 -13 -16
-23 -24 -23 -17 0 -32 38 -19 50 4 5 6 38 5 74 -3 49 -7 66 -18 66 -20 0 -29
27 -14 45 6 8 9 19 5 25 -3 5 1 13 9 16 19 7 22 36 3 32 -7 -2 -14 2 -15 7 -1
6 2 10 7 10 21 0 23 16 6 51 -9 20 -20 55 -23 77 -5 37 -3 39 17 32 13 -4 21
-2 21 5 0 6 -4 8 -10 5 -5 -3 -12 7 -16 22 -4 15 -11 33 -16 40 -5 6 -8 20 -7
30 2 10 -3 35 -10 55 -16 48 -6 66 19 36 l19 -23 1 23 c0 15 9 26 26 32 25 10
25 30 -1 30 -19 0 -27 28 -14 52 22 41 -42 53 -84 14 -24 -22 -29 -42 -39
-171 -4 -39 17 -155 27 -159 7 -2 16 -18 20 -35 4 -17 11 -31 16 -31 5 0 9 -5
9 -12 0 -6 -9 -3 -21 8 -20 18 -20 18 -14 -11 4 -17 8 -36 11 -43 2 -7 -2 -15
-9 -17 -8 -4 -12 -34 -11 -104 0 -83 4 -104 23 -136 17 -30 19 -40 9 -46 -7
-5 -13 -12 -14 -16 0 -4 -4 -15 -7 -23 -4 -8 -5 -23 -4 -34 3 -25 -28 -45 -45
-28 -9 9 -8 15 8 27 16 12 16 14 3 15 -10 0 -20 13 -24 33 -9 35 -19 371 -14
482 4 103 2 149 -11 263 -17 145 -31 137 228 137 114 0 236 -3 272 -6 39 -3
68 -1 72 5 4 6 15 6 31 -1 14 -7 34 -9 45 -6 20 5 30 -7 67 -84 10 -21 20 -30
29 -27 12 4 14 20 11 64 l-5 59 48 3 c59 4 135 -2 145 -12z m338 5 c1 -8 3
-19 4 -25 1 -5 3 -15 4 -20 2 -15 51 20 51 36 0 8 10 14 24 14 18 0 25 -7 29
-27 3 -16 2 -30 -3 -33 -4 -3 -9 -14 -12 -25 -3 -19 -18 -22 -75 -13 -18 2
-46 35 -49 56 -1 9 -5 25 -9 35 -5 13 -2 17 14 17 12 0 22 -7 22 -15z m-1871
-20 c0 -8 -7 -15 -15 -15 -11 0 -15 -11 -14 -42 1 -60 -11 -109 -32 -137 -11
-13 -19 -32 -19 -42 0 -10 -15 -28 -32 -40 -18 -12 -34 -24 -36 -25 -2 -1 6
-21 18 -43 19 -38 19 -43 5 -57 -8 -9 -15 -21 -15 -29 0 -7 -7 -25 -14 -41 -8
-15 -13 -31 -10 -36 3 -4 -1 -11 -10 -14 -8 -3 -18 -20 -22 -37 -11 -54 -29
-67 -85 -61 -39 4 -50 2 -55 -10 -9 -24 -37 -21 -29 3 4 14 -1 20 -20 25 -17
4 -30 17 -37 36 -11 32 -28 40 -28 14 0 -8 -4 -12 -10 -9 -5 3 -10 0 -10 -7 0
-8 21 -29 46 -47 30 -21 44 -37 40 -46 -3 -9 1 -15 9 -15 8 0 15 -7 15 -15 0
-8 -4 -15 -10 -15 -5 0 -10 -4 -10 -10 0 -5 7 -10 16 -10 9 0 18 -9 21 -20 7
-25 54 -27 78 -4 9 9 18 14 21 11 9 -9 -16 -47 -30 -47 -19 0 -40 -27 -27 -34
5 -4 31 -2 57 4 56 13 64 7 36 -23 -31 -33 -27 -40 18 -34 34 4 40 2 40 -13 0
-11 5 -22 10 -25 6 -3 10 -10 10 -16 0 -5 -4 -9 -10 -9 -5 0 -10 7 -10 15 0 8
-9 15 -21 15 -16 0 -19 -4 -14 -20 5 -15 0 -22 -19 -30 -31 -12 -33 -28 -5
-38 l20 -8 -20 -18 c-25 -23 -28 -41 -5 -32 21 8 37 -3 26 -17 -5 -7 -12 -24
-14 -39 -7 -36 14 -37 32 -3 7 14 22 25 32 25 22 0 22 1 2 -38 -14 -28 -14
-33 1 -55 19 -30 9 -36 -52 -29 -41 4 -41 4 -36 39 5 28 3 35 -8 31 -8 -2 -15
-19 -17 -36 l-3 -32 -72 -1 c-40 -1 -112 0 -162 2 -49 2 -136 2 -192 2 -59 -1
-105 2 -109 8 -4 6 -11 6 -20 -2 -10 -8 -18 -9 -25 -2 -12 12 -29 80 -22 87
11 11 32 -8 38 -35 11 -50 31 -32 26 23 -2 12 4 15 19 11 21 -6 29 20 10 32
-11 7 33 55 51 55 5 0 9 -11 9 -25 l0 -24 46 24 c51 27 69 31 59 14 -5 -7 4
-9 25 -5 58 9 54 28 -7 31 -21 2 -38 8 -38 14 0 12 -9 15 -28 8 -9 -3 -9 -7 0
-19 27 -32 -17 -38 -62 -8 l-29 19 24 10 c14 5 20 10 14 10 -14 1 -26 29 -19
42 4 5 17 2 30 -7 33 -21 97 -25 90 -5 -3 8 0 18 7 23 9 5 5 8 -12 9 -14 1
-28 1 -32 1 -13 -2 -29 26 -19 32 6 4 8 13 5 20 -7 19 22 39 46 31 26 -8 26
-23 -2 -27 -12 -2 -23 -9 -26 -15 -7 -23 20 -14 63 21 49 41 95 56 95 33 0 -9
-5 -19 -11 -23 -8 -4 -6 -10 6 -17 15 -8 23 -4 42 18 29 33 19 49 -27 47 -32
-1 -38 14 -20 49 9 16 7 19 -10 19 -16 0 -20 -6 -18 -31 2 -20 -2 -34 -12 -39
-8 -4 -25 -12 -37 -18 -31 -16 -38 -15 -23 3 18 22 -5 48 -30 35 -24 -13 -73
-13 -65 0 3 6 2 10 -4 10 -5 0 -13 -4 -16 -10 -11 -17 -37 -11 -42 10 -3 10
-13 22 -22 25 -9 2 -17 15 -18 27 -1 13 -5 49 -8 81 -3 35 -1 57 5 57 5 0 10
-5 10 -12 0 -8 3 -9 10 -2 6 6 8 18 4 27 -7 19 -24 23 -24 5 0 -6 -3 -9 -6 -6
-3 4 -2 27 1 51 5 33 11 44 21 40 8 -3 15 5 19 24 4 15 11 41 16 57 5 16 9 40
9 53 0 39 24 21 34 -25 5 -24 15 -42 22 -42 8 0 11 -6 8 -15 -4 -10 3 -18 20
-25 14 -5 26 -12 26 -16 0 -3 -7 -4 -15 0 -8 3 -15 1 -15 -4 0 -6 6 -10 14
-10 7 0 24 -8 37 -18 13 -10 32 -21 42 -25 25 -9 23 28 -3 50 -21 18 -28 73
-9 73 5 0 8 -4 5 -9 -3 -4 1 -17 10 -27 14 -18 15 -18 7 6 -18 57 9 258 38
275 5 4 9 19 9 36 0 19 5 29 15 29 9 0 20 12 26 28 10 26 11 26 25 8 8 -11 14
-23 14 -28 0 -18 18 -7 24 15 5 17 8 19 15 8 5 -8 5 -25 -1 -43 -6 -15 -7 -35
-4 -44 9 -24 49 22 65 76 20 67 24 70 107 68 41 0 76 1 79 3 2 3 31 5 65 6 47
2 60 -1 60 -12z m3295 -104 c-5 -62 -6 -64 -30 -55 -15 6 -15 8 -2 16 12 6 16
24 15 71 0 85 3 98 13 57 5 -19 7 -59 4 -89z m2755 78 c13 -23 8 -35 -9 -24
-6 3 -8 11 -5 17 4 6 0 14 -7 19 -10 6 -10 9 -2 9 7 0 17 -9 23 -21z m2790 -9
c0 -5 -4 -10 -10 -10 -5 0 -10 5 -10 10 0 6 5 10 10 10 6 0 10 -4 10 -10z m-5
-88 c-6 -15 -8 -15 -15 3 -4 12 -3 26 4 34 9 12 12 11 14 -3 2 -9 1 -25 -3
-34z m-9435 -64 c0 -15 -10 -27 -27 -36 -20 -9 -24 -9 -15 0 7 7 12 22 12 35
0 14 6 23 15 23 9 0 15 -9 15 -22z m35 -30 c-9 -42 -13 -48 -30 -48 -7 0 -15
-6 -18 -12 -2 -7 -8 -9 -13 -5 -4 4 -3 16 4 25 7 9 20 29 30 44 23 37 35 35
27 -4z m3835 23 c0 -6 -4 -13 -10 -16 -5 -3 -10 1 -10 9 0 9 5 16 10 16 6 0
10 -4 10 -9z m-1625 -11 c3 -5 2 -10 -4 -10 -5 0 -13 5 -16 10 -3 6 -2 10 4
10 5 0 13 -4 16 -10z m-288 -47 c2 -6 -3 -13 -12 -16 -10 -5 -15 0 -15 14 0
21 21 22 27 2z m1936 -27 c3 -8 2 -27 -3 -43 l-8 -28 -1 28 c-1 15 -5 27 -11
27 -5 0 -10 7 -10 15 0 19 26 20 33 1z m83 -73 c-10 -10 -19 5 -10 18 6 11 8
11 12 0 2 -7 1 -15 -2 -18z m1 -100 c-2 -16 -4 -3 -4 27 0 30 2 43 4 28 2 -16
2 -40 0 -55z m8193 -19 c0 -16 -16 -19 -25 -4 -8 13 4 32 16 25 5 -4 9 -13 9
-21z m-8193 -46 c-3 -8 -6 -5 -6 6 -1 11 2 17 5 13 3 -3 4 -12 1 -19z m-2237
-4 c0 -8 -4 -12 -10 -9 -5 3 -10 10 -10 16 0 5 5 9 10 9 6 0 10 -7 10 -16z
m150 -10 c0 -8 -7 -14 -15 -14 -15 0 -21 21 -9 33 10 9 24 -2 24 -19z m-50 -4
c0 -5 -2 -10 -4 -10 -3 0 -8 5 -11 10 -3 6 -1 10 4 10 6 0 11 -4 11 -10z
m-2060 -55 c0 -8 -4 -15 -10 -15 -5 0 -10 7 -10 15 0 8 5 15 10 15 6 0 10 -7
10 -15z m1954 -19 c-5 -13 -9 -14 -14 -5 -11 16 0 43 12 31 5 -5 6 -17 2 -26z
m-129 14 c-3 -5 -11 -10 -16 -10 -6 0 -7 5 -4 10 3 6 11 10 16 10 6 0 7 -4 4
-10z m-1229 -52 c3 -4 -4 -11 -15 -18 -12 -6 -21 -8 -21 -4 0 3 -7 1 -15 -6
-12 -10 -18 -10 -30 0 -8 7 -15 16 -15 21 0 14 82 20 96 7z m3601 -55 c-3 -10
-5 -4 -5 12 0 17 2 24 5 18 2 -7 2 -21 0 -30z m-2247 7 c0 -5 -4 -10 -10 -10
-5 0 -10 5 -10 10 0 6 5 10 10 10 6 0 10 -4 10 -10z m-1412 -12 c-6 -18 -28
-21 -28 -4 0 9 7 16 16 16 9 0 14 -5 12 -12z m1329 -23 c-4 -8 -11 -15 -17
-15 -6 0 -6 7 2 20 14 22 24 19 15 -5z m2335 -49 c-9 -18 -11 -16 -11 19 0 33
1 37 10 21 8 -12 8 -25 1 -40z m-2842 -14 c0 -15 -2 -15 -10 -2 -13 20 -13 33
0 25 6 -3 10 -14 10 -23z m-1190 -22 c0 -6 -7 -13 -15 -16 -8 -4 -15 -14 -15
-23 0 -22 -49 -46 -63 -32 -14 14 0 30 23 24 12 -3 21 0 22 8 0 8 2 19 3 24 2
6 3 13 4 18 2 11 41 8 41 -3z m4027 -32 c-3 -8 -6 -5 -6 6 -1 11 2 17 5 13 3
-3 4 -12 1 -19z m3 -62 c0 -3 -4 -8 -10 -11 -5 -3 -10 -1 -10 4 0 6 5 11 10
11 6 0 10 -2 10 -4z m-2637 -56 c16 -13 40 -20 69 -20 29 0 38 -3 29 -9 -9 -6
-11 -15 -6 -27 5 -11 9 -23 9 -29 1 -5 18 -10 39 -10 45 -2 52 -8 39 -31 -7
-13 -6 -24 5 -40 8 -13 12 -28 8 -34 -12 -20 -31 -10 -47 28 l-17 37 0 -42
c-1 -49 -6 -52 -39 -20 -23 21 -24 21 -21 2 6 -37 -9 -45 -87 -45 -41 0 -74 3
-75 8 -1 4 -3 57 -4 117 -3 105 -2 111 18 122 34 16 52 15 80 -7z m-831 -167
c-8 -13 -7 -22 4 -34 13 -15 13 -17 -1 -22 -10 -5 -15 0 -15 13 0 11 -4 20 -9
20 -21 0 -20 31 2 39 28 11 32 7 19 -16z m6158 -121 c0 -5 -69 -9 -152 -10
-84 0 -137 3 -118 7 56 10 270 12 270 3z m-643 -8 c-3 -3 -12 -4 -19 -1 -8 3
-5 6 6 6 11 1 17 -2 13 -5z m222 2 c-9 -8 -200 -13 -205 -5 -3 5 43 9 102 9
59 0 105 -2 103 -4z m-5134 -56 c3 -5 -1 -10 -10 -10 -9 0 -13 5 -10 10 3 6 8
10 10 10 2 0 7 -4 10 -10z m6906 -54 c-5 -11 -9 -68 -10 -126 -1 -58 -7 -109
-12 -115 -11 -10 -11 226 -1 274 5 22 6 23 18 7 8 -12 10 -26 5 -40z m-7133
-5 c12 -7 12 -29 2 -76 -7 -32 1 -44 30 -42 18 1 30 8 30 16 0 8 -6 11 -15 7
-9 -3 -15 0 -15 9 0 18 21 20 37 4 15 -15 32 -4 45 29 10 23 12 24 16 8 2 -10
-2 -29 -9 -42 -9 -17 -9 -30 -2 -46 l11 -23 7 28 c7 28 23 36 30 15 2 -7 6
-30 10 -50 3 -21 10 -38 16 -38 6 0 8 14 5 35 -5 30 -3 35 14 35 13 0 22 9 26
27 7 24 8 25 20 8 13 -18 14 -18 34 0 19 17 20 17 26 -1 3 -11 9 -29 14 -40 6
-15 4 -26 -6 -36 -16 -16 -6 -59 17 -74 9 -5 10 -2 6 10 -8 20 10 59 23 51 19
-11 60 7 60 27 0 10 4 17 9 14 5 -4 9 -27 8 -53 -1 -52 16 -68 30 -28 l9 27
13 -25 c11 -21 11 -30 0 -56 -14 -32 -49 -43 -49 -16 0 19 -16 20 -23 1 -3 -8
1 -17 9 -20 17 -6 19 -47 3 -63 -6 -6 -19 -9 -28 -6 -12 4 -12 2 3 -9 12 -9
19 -28 20 -54 1 -36 -1 -39 -26 -42 -24 -3 -28 0 -28 22 0 14 5 26 10 26 6 0
10 8 10 18 0 12 -2 14 -8 4 -5 -7 -16 -10 -24 -7 -20 8 -35 -15 -17 -26 17
-10 5 -23 -38 -37 -24 -8 -33 -8 -36 1 -3 9 -8 9 -18 0 -10 -11 -15 -7 -26 18
-7 17 -13 42 -13 55 0 15 -6 24 -16 24 -13 0 -14 -3 -4 -15 6 -8 9 -23 5 -35
-7 -21 -20 -26 -29 -11 -7 10 -90 23 -163 25 -28 0 -54 4 -58 8 -4 4 -3 20 3
37 9 25 8 30 -10 34 -14 4 -19 12 -16 29 2 14 -2 22 -9 21 -7 -2 -13 2 -13 7
0 6 -8 18 -17 29 -52 56 -58 75 -55 179 1 33 1 34 -37 27 -33 -5 -39 -4 -44
14 -4 18 -9 20 -32 11 -29 -11 -45 -6 -45 15 0 10 25 14 112 14 61 1 114 3
116 6 9 8 76 5 90 -4z m-491 -15 c12 -11 -11 -24 -49 -27 -40 -4 -65 11 -53
31 7 12 89 9 102 -4z m563 -12 c0 -22 -3 -24 -22 -18 -30 9 -30 8 -22 28 3 9
15 16 25 16 14 0 19 -7 19 -26z m230 5 c0 -24 -23 -21 -28 4 -2 10 3 17 12 17
10 0 16 -9 16 -21z m1493 -27 c3 -14 0 -34 -6 -43 -9 -15 -7 -23 10 -41 11
-13 24 -42 28 -65 7 -43 -1 -53 -22 -32 -8 8 -10 -2 -7 -38 2 -26 3 -61 4 -76
0 -20 6 -30 20 -34 20 -5 28 -23 10 -23 -5 0 -10 -8 -10 -17 0 -14 2 -15 9 -5
4 7 6 -24 4 -70 -3 -63 -8 -86 -20 -96 -15 -10 -16 -18 -6 -55 10 -34 10 -44
-2 -53 -10 -8 -11 -14 -4 -21 17 -17 2 -31 -37 -39 -26 -5 -32 -9 -22 -15 11
-7 10 -11 -2 -19 -18 -12 -21 -12 -39 -1 -10 6 -13 29 -13 77 4 211 -2 474
-12 529 -4 18 -1 46 5 61 39 97 51 113 83 107 16 -3 26 -14 29 -31z m-1994
-52 c-11 -31 -29 -32 -29 -1 0 21 9 31 26 31 10 0 11 -7 3 -30z m-1220 -46
c10 -9 -35 -3 -49 6 -11 8 -7 9 15 4 17 -4 32 -8 34 -10z m3018 -26 c-3 -8 -6
-5 -6 6 -1 11 2 17 5 13 3 -3 4 -12 1 -19z m-3037 -39 c0 -11 -4 -18 -9 -14
-6 3 -6 -6 -1 -25 9 -33 -2 -40 -26 -16 -16 16 -19 36 -5 36 5 0 11 9 14 20 7
26 27 26 27 -1z m8558 -95 c0 -54 -9 -51 -15 6 -3 23 -1 40 5 40 6 0 10 -21
10 -46z m22 -94 c0 -5 -7 -10 -15 -10 -8 0 -15 5 -15 10 0 6 7 10 15 10 8 0
15 -4 15 -10z m-8510 -21 c0 -5 -7 -9 -15 -9 -15 0 -20 12 -9 23 8 8 24 -1 24
-14z m335 11 c3 -5 -1 -10 -10 -10 -9 0 -13 5 -10 10 3 6 8 10 10 10 2 0 7 -4
10 -10z m956 -13 c-1 -12 -15 -9 -19 4 -3 6 1 10 8 8 6 -3 11 -8 11 -12z
m9939 3 c0 -5 -2 -10 -4 -10 -3 0 -8 5 -11 10 -3 6 -1 10 4 10 6 0 11 -4 11
-10z m-11273 -42 c-3 -8 -6 -5 -6 6 -1 11 2 17 5 13 3 -3 4 -12 1 -19z m1448
-5 c-11 -7 -26 -13 -34 -13 -12 1 -10 6 8 20 12 11 28 17 34 13 6 -4 3 -11 -8
-20z m-75 -29 c0 -8 -4 -12 -10 -9 -5 3 -10 10 -10 16 0 5 5 9 10 9 6 0 10 -7
10 -16z m390 -14 c0 -5 -5 -10 -11 -10 -5 0 -7 5 -4 10 3 6 8 10 11 10 2 0 4
-4 4 -10z m7655 0 c3 -5 -3 -10 -14 -10 -12 0 -21 5 -21 10 0 6 6 10 14 10 8
0 18 -4 21 -10z m-8035 -59 c11 -8 3 -9 -25 -4 -48 7 -54 11 -35 23 13 8 24 5
60 -19z m4775 -6 c50 -7 122 -19 160 -28 39 -9 95 -20 125 -25 56 -11 84 -19
320 -92 74 -23 187 -58 250 -78 63 -19 120 -38 125 -42 6 -4 31 -14 56 -24 26
-9 55 -26 64 -36 10 -11 26 -20 35 -20 10 0 32 -16 51 -36 19 -20 40 -41 48
-47 45 -39 93 -93 144 -164 31 -44 101 -126 155 -181 53 -54 106 -112 117
-128 29 -42 95 -172 95 -188 0 -7 15 -42 33 -77 56 -107 94 -248 113 -409 16
-146 38 -220 135 -455 11 -27 33 -102 49 -165 29 -121 33 -206 13 -270 -35
-108 -37 -119 -23 -174 7 -32 10 -77 7 -108 -7 -63 -66 -222 -101 -274 -36
-54 -112 -98 -104 -61 1 6 -8 39 -20 71 -13 33 -19 63 -15 67 4 4 21 9 37 11
38 4 43 21 12 36 -13 6 -36 30 -50 54 -20 36 -24 55 -23 115 l1 72 40 10 c28
7 50 22 69 46 25 32 28 43 27 103 -1 37 -1 73 -1 80 1 21 22 2 40 -37 39 -84
71 -107 71 -51 0 16 5 41 12 55 9 20 8 31 -2 49 -7 14 -10 38 -7 54 5 22 1 34
-14 48 -16 14 -20 28 -17 56 3 34 1 37 -18 32 -26 -7 -34 17 -27 78 5 40 4 42
-10 23 -13 -17 -17 -17 -32 -5 -13 10 -15 24 -11 57 3 24 1 43 -5 43 -5 0 -9
-6 -9 -14 0 -20 -27 -27 -40 -10 -10 10 -10 25 -1 58 15 60 14 65 -9 38 -31
-38 -54 -25 -60 33 -3 31 -8 45 -13 38 -5 -7 -20 -13 -33 -13 -25 0 -25 2 -19
41 l7 42 -29 -6 c-46 -9 -57 4 -50 60 4 34 3 41 -3 26 -10 -25 -42 -30 -57
-10 -6 6 -13 28 -17 47 -5 32 -9 35 -39 35 -30 0 -32 2 -35 38 -2 20 -7 37
-13 37 -5 0 -9 -5 -9 -10 0 -6 -11 -3 -25 6 -14 9 -26 12 -26 8 -1 -5 -5 9 -8
31 -4 27 -11 39 -20 37 -8 -2 -27 2 -43 9 -23 10 -28 17 -28 48 0 33 -4 38
-40 53 -35 14 -40 21 -40 48 0 17 -4 29 -9 25 -5 -3 -25 3 -43 13 -23 13 -34
27 -36 46 -3 25 -7 28 -32 23 -19 -4 -30 -2 -34 8 -3 8 -12 15 -21 15 -8 0
-15 9 -15 19 0 20 -18 31 -51 31 -10 0 -19 5 -19 10 0 6 -9 10 -20 10 -13 0
-20 7 -20 20 0 11 -6 21 -12 21 -7 1 -17 2 -23 4 -5 1 -23 3 -38 3 -22 2 -31
9 -40 31 -10 27 -17 30 -69 36 -55 7 -58 8 -58 35 0 16 -4 32 -10 35 -5 3 -10
2 -10 -3 0 -13 -49 -22 -56 -11 -3 5 -13 9 -23 9 -10 0 -23 11 -29 25 -12 26
-47 34 -54 13 -6 -17 -69 14 -86 41 -14 24 -37 27 -45 7 -8 -21 -75 -17 -82 5
-7 21 -34 32 -49 20 -6 -4 -27 -11 -48 -15 -34 -6 -37 -5 -43 23 -6 29 -45 52
-45 27 0 -20 -42 -54 -47 -38 -6 17 -23 15 -23 -3 0 -29 -18 -15 -24 20 -9 46
-25 54 -48 22 -10 -14 -25 -24 -32 -21 -7 3 -19 -2 -26 -11 -16 -19 -30 -19
-30 -1 0 12 -40 46 -55 46 -3 0 -5 -8 -5 -19 0 -10 -11 -26 -23 -34 -25 -16
-25 -16 -85 21 -19 11 -23 9 -38 -13 -9 -14 -24 -25 -34 -25 -10 0 -21 -6 -24
-12 -3 -10 -9 -8 -19 5 -8 9 -18 17 -22 17 -4 0 -14 8 -21 18 -12 16 -13 15
-14 -8 0 -32 -15 -55 -28 -46 -6 4 -16 0 -23 -7 -11 -11 -19 -10 -48 10 -35
24 -35 24 -43 3 -4 -11 -14 -20 -22 -20 -8 0 -18 -9 -21 -21 -6 -19 -8 -19
-24 -5 -21 19 -61 21 -61 3 0 -8 -16 -22 -35 -33 l-35 -19 -16 24 -17 24 -21
-44 c-22 -47 -54 -61 -82 -39 -11 10 -14 8 -14 -12 0 -26 -47 -61 -77 -56 -13
2 -19 -5 -21 -24 -4 -35 -22 -48 -66 -50 -35 -1 -36 -2 -30 -33 5 -28 2 -33
-18 -40 -12 -4 -27 -8 -33 -9 -21 -3 -35 -18 -35 -37 0 -12 -10 -23 -25 -29
-14 -5 -25 -14 -25 -20 0 -5 -7 -10 -16 -10 -12 0 -15 -6 -11 -21 7 -27 -39
-71 -66 -63 -17 6 -18 4 -3 -25 16 -31 16 -31 -19 -53 -25 -16 -34 -29 -31
-42 5 -18 0 -27 -37 -67 -11 -12 -16 -28 -12 -39 8 -24 -11 -60 -31 -60 -12 0
-15 -6 -10 -26 4 -14 3 -31 -2 -37 -16 -21 -21 -61 -10 -75 9 -10 5 -19 -19
-40 -28 -27 -29 -29 -14 -52 12 -18 13 -24 3 -28 -14 -4 -16 -46 -2 -72 7 -14
5 -27 -7 -48 -17 -29 -17 -31 0 -50 18 -19 23 -42 9 -42 -4 0 -12 -8 -19 -19
-10 -15 -8 -23 8 -40 17 -18 19 -27 10 -52 -6 -19 -7 -39 -1 -54 6 -16 6 -35
-1 -51 -7 -20 -6 -32 5 -49 14 -21 13 -24 -7 -38 -20 -13 -21 -15 -4 -40 14
-22 15 -31 5 -53 -11 -23 -10 -28 8 -43 17 -14 19 -21 10 -40 -7 -16 -7 -28 1
-39 7 -12 7 -24 0 -40 -8 -18 -6 -27 14 -48 20 -21 21 -27 9 -34 -13 -8 -13
-14 3 -41 9 -17 17 -41 17 -53 0 -12 6 -31 14 -41 8 -11 11 -25 9 -33 -3 -7 5
-25 19 -40 14 -15 25 -38 26 -51 0 -13 8 -31 16 -40 9 -10 16 -24 16 -33 0 -8
11 -25 25 -38 14 -13 25 -28 25 -33 0 -5 11 -18 25 -29 26 -20 33 -38 15 -38
-14 0 -130 112 -130 126 0 6 -9 19 -21 30 -31 28 -113 208 -137 299 -12 44
-33 123 -47 175 -14 52 -30 120 -35 150 -10 61 -38 335 -45 445 -2 39 -13 106
-24 149 -32 123 -30 358 5 498 29 117 37 149 54 198 27 77 191 391 226 433 25
30 31 57 13 57 -5 0 -7 5 -4 10 3 6 16 10 29 10 20 0 90 75 203 217 10 13 23
23 30 23 6 0 20 13 29 29 10 16 27 34 38 39 12 5 40 25 64 45 23 20 51 39 63
42 11 4 31 17 44 31 13 13 35 24 48 24 13 0 38 11 57 25 19 14 40 25 48 25 8
0 38 11 66 24 28 14 87 39 131 57 44 17 91 37 105 44 14 8 45 20 70 28 63 20
109 37 148 53 18 8 45 14 60 15 15 0 36 4 47 9 11 5 27 6 35 3 8 -3 56 -11
105 -18z m-4510 -55 c-3 -5 -13 -10 -21 -10 -8 0 -14 5 -14 10 0 6 9 10 21 10
11 0 17 -4 14 -10z m9650 -190 c3 -5 1 -10 -4 -10 -6 0 -11 5 -11 10 0 6 2 10
4 10 3 0 8 -4 11 -10z m-8165 -325 c0 -8 -4 -15 -9 -15 -13 0 -22 16 -14 24
11 11 23 6 23 -9z m9900 -88 c0 -10 -33 -13 -141 -13 -91 -1 -144 -5 -152 -13
-6 -6 -15 -11 -19 -11 -10 0 -11 34 -1 43 3 4 75 7 160 7 118 0 153 -3 153
-13z m170 3 c17 -11 5 -12 -85 -12 -71 1 -72 1 -55 12 8 5 40 10 70 10 30 0
62 -5 70 -10z m-3442 -19 c12 -7 -79 -11 -285 -12 -167 -1 -315 -3 -330 -4
-26 -2 -667 -7 -776 -5 -27 0 -46 4 -43 9 3 5 95 10 203 11 109 1 335 5 503 8
389 9 706 5 728 -7z m2398 11 c-5 -9 -214 -7 -223 2 -4 3 46 6 111 6 64 0 115
-4 112 -8z m112 1 c-10 -2 -28 -2 -40 0 -13 2 -5 4 17 4 22 1 32 -1 23 -4z
m141 3 c-8 -8 -88 -10 -95 -3 -4 4 17 7 46 7 29 0 51 -2 49 -4z m54 -3 c-7 -2
-21 -2 -30 0 -10 3 -4 5 12 5 17 0 24 -2 18 -5z m117 -3 c0 -5 -9 -10 -21 -10
-11 0 -17 5 -14 10 3 6 13 10 21 10 8 0 14 -4 14 -10z m45 0 c3 -5 1 -10 -4
-10 -6 0 -11 5 -11 10 0 6 2 10 4 10 3 0 8 -4 11 -10z m-9690 -60 c4 -6 -20
-9 -67 -8 l-73 1 55 7 c30 4 60 7 67 8 6 1 15 -2 18 -8z m1685 0 c0 -5 -8 -10
-17 -10 -15 0 -16 2 -3 10 19 12 20 12 20 0z m95 0 c3 -6 -1 -7 -9 -4 -18 7
-21 14 -7 14 6 0 13 -4 16 -10z m-177 -17 c-4 -19 -35 -31 -90 -32 -52 -1 -48
11 10 30 65 22 84 23 80 2z m-4267 -23 c5 0 9 -4 9 -10 0 -5 -26 -10 -57 -10
-35 0 -53 4 -47 9 11 11 54 20 72 15 8 -2 18 -4 23 -4z m59 -10 c0 -5 -9 -10
-20 -10 -11 0 -20 5 -20 10 0 6 9 10 20 10 11 0 20 -4 20 -10z m45 0 c-3 -5
-10 -10 -16 -10 -5 0 -9 5 -9 10 0 6 7 10 16 10 8 0 12 -4 9 -10z m212 4 c-3
-3 -12 -4 -19 -1 -8 3 -5 6 6 6 11 1 17 -2 13 -5z m2091 -21 c2 -7 -2 -13 -10
-14 -7 0 -26 -2 -43 -4 -73 -7 -462 -8 -473 -1 -43 26 5 31 322 31 151 0 200
-3 204 -12z m88 7 c14 0 23 -4 20 -8 -3 -5 -22 -8 -43 -6 -47 2 -46 2 -38 15
4 6 14 8 22 5 8 -3 26 -6 39 -6z m94 1 c0 -15 -16 -22 -34 -15 -25 9 -19 24 9
24 14 0 25 -4 25 -9z m120 5 c0 -3 -4 -8 -10 -11 -5 -3 -10 -1 -10 4 0 6 5 11
10 11 6 0 10 -2 10 -4z m-1013 -19 c-3 -8 -33 -12 -93 -12 -95 0 -114 3 -114
15 0 5 48 8 106 8 77 1 104 -3 101 -11z m148 -7 c0 -22 -29 -18 -33 3 -3 14 1
18 15 15 10 -2 18 -10 18 -18z m-948 -6 c3 -8 0 -21 -6 -27 -10 -9 -15 -8 -25
4 -10 15 -15 15 -36 3 -14 -7 -47 -13 -73 -14 -27 0 -61 -7 -76 -16 -26 -15
-30 -15 -65 1 -28 13 -40 15 -49 6 -14 -14 -47 -14 -47 1 0 6 -8 4 -19 -6 -16
-15 -22 -15 -40 -4 -16 10 -23 10 -33 0 -18 -18 -41 -14 -60 12 -17 23 -17 24
0 32 9 4 127 10 262 14 135 3 249 7 253 8 4 1 10 -5 14 -14z m-757 -27 c0 -21
-12 -28 -27 -16 -19 16 -16 29 7 29 11 0 20 -6 20 -13z m458 -71 c7 -4 12 -2
12 3 0 6 4 11 9 11 5 0 8 -8 7 -17 -1 -12 8 -19 24 -22 l25 -4 -25 -6 c-16 -5
-25 -14 -25 -26 0 -17 -7 -20 -46 -20 -25 0 -53 -6 -62 -13 -9 -8 -34 -15 -57
-15 -23 -1 -42 -8 -45 -16 -4 -10 -8 -11 -20 -1 -15 13 -10 37 15 60 9 8 11
12 5 9 -30 -17 -44 -18 -38 -1 3 9 13 23 21 30 14 11 14 12 -1 12 -10 0 -20
-7 -23 -15 -7 -17 -24 -11 -24 9 0 7 19 17 43 23 46 11 186 11 205 -1z m1342
-21 c0 -10 -11 -15 -35 -15 -44 0 -46 17 -2 23 17 2 33 5 35 5 1 1 2 -5 2 -13z
m-1830 -25 c0 -22 -4 -28 -15 -24 -10 4 -15 0 -15 -12 -1 -18 -1 -18 -15 0
-22 29 -18 39 11 32 22 -6 25 -4 19 14 -4 11 -2 20 4 20 6 0 11 -13 11 -30z
m1950 18 c0 -5 -6 -8 -14 -8 -8 0 -22 -10 -30 -21 -13 -20 -18 -21 -45 -9 -35
14 -39 25 -14 39 20 11 103 10 103 -1z m-172 -53 c-3 -3 -19 -3 -34 1 l-29 8
25 6 c24 7 50 -4 38 -15z m42 -5 c0 -5 -4 -10 -10 -10 -5 0 -10 5 -10 10 0 6
5 10 10 10 6 0 10 -4 10 -10z m4196 -16 c137 -25 406 -115 515 -172 105 -54
232 -156 378 -301 166 -166 205 -212 242 -285 15 -28 40 -78 57 -111 30 -61
122 -324 122 -351 0 -8 10 -36 22 -62 18 -39 22 -68 24 -165 2 -64 6 -121 9
-127 3 -5 7 -29 8 -52 2 -24 6 -48 9 -53 9 -15 13 -83 5 -91 -14 -14 -7 -62
10 -68 15 -6 15 -8 -1 -24 -14 -12 -20 -14 -23 -4 -5 14 -29 16 -38 3 -6 -11
15 -61 25 -61 4 0 10 -9 13 -20 3 -11 0 -20 -6 -20 -17 0 -47 31 -47 49 0 9
-4 23 -10 31 -7 12 -12 12 -34 0 -20 -10 -23 -16 -14 -27 15 -19 7 -24 -46
-25 -44 0 -45 -2 -40 -25 6 -23 5 -24 -14 -14 -11 6 -23 11 -26 11 -10 0 -7
-38 3 -44 5 -3 11 -20 13 -38 5 -32 5 -32 -13 -10 -20 26 -49 20 -49 -10 0
-10 -4 -16 -10 -13 -5 3 -10 -3 -10 -14 0 -32 -11 -51 -30 -51 -10 0 -21 -6
-24 -12 -4 -7 -4 -2 -2 11 7 33 -10 61 -35 61 -15 0 -19 5 -16 15 4 8 0 27 -8
42 -8 15 -12 37 -9 47 5 15 2 18 -13 14 -25 -7 -53 8 -53 27 0 8 -16 21 -35
29 -19 8 -35 20 -35 25 0 6 -9 11 -19 11 -11 0 -22 4 -26 10 -3 5 -12 7 -20 3
-9 -3 -15 1 -15 11 0 18 -35 22 -45 6 -9 -15 -55 -12 -55 3 0 9 -12 14 -29 15
-30 1 -139 27 -176 42 -11 5 -32 11 -47 14 -16 4 -28 11 -28 16 0 6 -10 10
-21 10 -12 0 -53 11 -91 25 -75 27 -132 32 -144 13 -4 -6 -2 -14 5 -16 23 -8
82 -64 97 -93 20 -41 18 -68 -8 -78 -61 -25 -164 -40 -203 -31 -38 9 -41 7
-78 -31 -30 -31 -43 -38 -60 -33 -12 4 -26 7 -32 7 -41 0 -65 -5 -83 -20 -59
-49 -76 -57 -119 -54 -33 2 -50 -3 -76 -23 -19 -14 -48 -31 -65 -37 -18 -6
-32 -15 -32 -19 0 -5 19 -22 43 -38 38 -26 42 -32 40 -66 -3 -47 -46 -94 -69
-75 -8 6 -15 8 -15 3 -1 -5 -2 -14 -3 -20 0 -6 -9 -18 -18 -28 -10 -10 -18
-22 -18 -27 0 -5 -7 -9 -15 -9 -19 0 -19 10 1 38 15 21 15 25 0 41 -12 13 -14
32 -11 79 3 35 9 71 15 82 6 12 6 28 -1 50 -7 18 -9 58 -6 91 3 32 2 59 -2 59
-4 0 -29 -23 -56 -50 -28 -28 -63 -63 -78 -78 -16 -15 -40 -45 -54 -67 -14
-22 -39 -53 -55 -69 -15 -17 -28 -35 -28 -42 0 -7 -8 -10 -22 -6 -16 4 -19 2
-13 -8 6 -10 4 -12 -7 -7 -17 6 -38 -10 -38 -29 0 -20 -72 -94 -92 -94 -10 0
-18 -5 -18 -11 0 -6 -13 -24 -30 -41 -16 -16 -30 -24 -30 -18 0 10 -4 9 -15 0
-17 -14 -21 -80 -5 -80 6 0 10 -5 10 -11 0 -6 -8 -9 -18 -7 -17 5 -19 -1 -18
-56 l1 -61 -37 3 c-33 2 -38 0 -38 -18 0 -11 -4 -20 -9 -20 -4 0 -7 -12 -5
-27 3 -22 1 -20 -7 7 -20 66 -29 80 -47 80 -25 0 -51 63 -81 190 -12 52 -31
129 -41 170 -33 129 -60 321 -75 530 -3 47 -15 139 -26 205 -39 239 -49 331
-49 464 0 155 11 235 44 331 23 65 113 245 163 324 35 54 168 183 214 207 21
10 40 22 43 27 4 7 142 77 211 107 17 8 44 16 60 19 17 2 77 16 135 30 96 24
351 62 460 69 115 7 191 5 266 -9z m6315 -41 c-11 -25 -14 -26 -23 -10 -5 10
-7 30 -3 44 6 24 7 25 22 10 14 -14 15 -20 4 -44z m-12283 31 c18 -18 15 -21
-20 -20 -38 2 -61 13 -53 27 8 12 57 7 73 -7z m89 -6 c-2 -7 0 -21 4 -30 6
-10 5 -19 -1 -23 -5 -3 -7 -12 -4 -19 5 -14 -23 -43 -33 -32 -3 3 -1 16 5 29
6 12 11 30 11 40 2 37 5 47 14 47 5 0 7 -6 4 -12z m-87 -68 c0 -19 -11 -26
-23 -14 -8 8 3 34 14 34 5 0 9 -9 9 -20z m-60 0 c0 -5 -4 -10 -10 -10 -5 0
-10 5 -10 10 0 6 5 10 10 10 6 0 10 -4 10 -10z m9205 -390 c3 -5 1 -10 -4 -10
-6 0 -11 5 -11 10 0 6 2 10 4 10 3 0 8 -4 11 -10z m3135 -57 c0 -7 -4 -13 -10
-13 -5 0 -10 12 -10 28 0 21 2 24 10 12 5 -8 10 -21 10 -27z m1 -64 c3 -19 9
-40 13 -47 4 -7 2 -20 -5 -28 -9 -10 -9 -18 -2 -22 5 -4 11 -40 11 -79 1 -58
-2 -74 -16 -82 -16 -9 -16 -12 1 -41 18 -34 23 -90 7 -90 -5 0 -10 -9 -10 -20
0 -11 -6 -20 -14 -20 -12 0 -14 37 -13 235 1 151 6 234 12 232 5 -2 12 -19 16
-38z m-12781 -389 c0 -5 -4 -10 -10 -10 -5 0 -10 5 -10 10 0 6 5 10 10 10 6 0
10 -4 10 -10z m14140 -52 c0 -10 -43 -12 -220 -10 -122 1 -219 6 -216 11 3 4
102 9 221 10 172 2 215 0 215 -11z m-480 -2 c0 -9 -30 -14 -35 -6 -4 6 3 10
14 10 12 0 21 -2 21 -4z m-2286 -68 c4 -17 2 -28 -4 -28 -5 0 -10 14 -10 32 0
36 4 35 14 -4z m-9454 -14 c270 -8 362 -22 155 -24 -311 -4 -432 -7 -463 -15
-18 -4 -38 -3 -45 2 -6 6 -37 7 -67 5 -51 -5 -545 -8 -600 -3 -14 1 -166 1
-338 1 -237 0 -314 -4 -317 -13 -4 -10 -16 -356 -16 -444 0 -18 -4 -33 -9 -33
-12 0 -22 67 -20 131 1 30 1 121 1 203 -1 139 0 151 19 170 20 21 29 21 710
22 380 0 693 4 697 8 4 4 17 5 28 2 11 -3 130 -8 265 -12z m2568 9 c-21 -2
-57 -2 -80 0 -24 2 -7 4 37 4 44 0 63 -2 43 -4z m-4411 -19 c-3 -3 -12 -4 -19
-1 -8 3 -5 6 6 6 11 1 17 -2 13 -5z m3273 -24 c0 -6 -33 -10 -72 -10 -40 0
-83 -3 -95 -6 -13 -4 -23 -2 -23 4 0 6 17 12 38 14 89 7 152 6 152 -2z m60 0
c-20 -13 -50 -13 -50 0 0 6 15 10 33 10 24 0 28 -3 17 -10z m5170 -166 c0 -8
-5 -12 -10 -9 -6 4 -8 11 -5 16 9 14 15 11 15 -7z m-589 -156 c25 -49 34 -116
20 -152 -11 -27 -25 -29 -26 -3 -1 7 -6 30 -12 52 -19 63 -43 161 -43 170 0
16 42 -30 61 -67z m589 -210 c1 -51 2 -100 1 -108 0 -8 -1 -85 -1 -170 0 -142
-2 -153 -16 -135 -12 17 -14 42 -10 145 7 151 7 141 4 165 -5 53 3 195 11 195
5 0 10 -42 11 -92z m3 -490 c5 -18 -3 -48 -14 -48 -13 0 -22 27 -15 45 7 18
23 20 29 3z m2794 -120 c-3 -7 -5 -2 -5 12 0 14 2 19 5 13 2 -7 2 -19 0 -25z
m-6367 -58 c6 -30 17 -85 24 -122 7 -37 17 -73 23 -80 6 -7 13 -36 17 -65 4
-28 13 -68 22 -88 8 -21 14 -49 12 -64 -3 -22 -9 -15 -45 52 -52 95 -65 140
-68 237 -2 41 -7 101 -12 133 -15 92 8 90 27 -3z m3570 50 c0 -5 -4 -10 -10
-10 -5 0 -10 5 -10 10 0 6 5 10 10 10 6 0 10 -4 10 -10z m2820 -34 c0 -14 -4
-28 -10 -31 -5 -3 -10 -3 -10 2 0 4 -3 18 -6 31 -5 16 -2 22 10 22 10 0 16 -9
16 -24z m-2820 -12 c0 -8 -4 -14 -10 -14 -5 0 -10 9 -10 21 0 11 5 17 10 14 6
-3 10 -13 10 -21z m1437 -48 c4 -3 -33 -6 -81 -6 -50 0 -85 4 -82 9 7 10 153
7 163 -3z m88 4 c4 -6 -8 -10 -30 -10 -22 0 -34 4 -30 10 3 6 17 10 30 10 13
0 27 -4 30 -10z m-478 -6 c-3 -3 -12 -4 -19 -1 -8 3 -5 6 6 6 11 1 17 -2 13
-5z m191 -1 c-10 -2 -28 -2 -40 0 -13 2 -5 4 17 4 22 1 32 -1 23 -4z m425 0
c-13 -2 -33 -2 -45 0 -13 2 -3 4 22 4 25 0 35 -2 23 -4z m1127 -3 c0 -5 -10
-10 -22 -10 -19 0 -20 2 -8 10 19 13 30 13 30 0z m-2082 -7 c-16 -2 -40 -2
-55 0 -16 2 -3 4 27 4 30 0 43 -2 28 -4z m105 0 c-7 -2 -19 -2 -25 0 -7 3 -2
5 12 5 14 0 19 -2 13 -5z m2052 -31 c6 -2 5 -5 -1 -10 -7 -4 -50 -5 -95 -3
-97 4 -81 17 19 15 37 0 72 -1 77 -2z m-4633 -29 c43 -41 32 -103 -18 -103
-35 0 -61 59 -43 101 14 36 25 36 61 2z m3118 0 c0 -26 0 -26 -19 -7 -18 19
-15 25 17 33 1 1 2 -11 2 -26z m1227 21 c-3 -3 -12 -4 -19 -1 -8 3 -5 6 6 6
11 1 17 -2 13 -5z m-4277 -39 c0 -16 -6 -25 -15 -25 -16 0 -19 9 -9 34 9 25
24 19 24 -9z m-183 -7 c38 -42 46 -67 33 -99 -14 -32 -45 -45 -85 -35 -20 5
-25 3 -25 -13 0 -24 -36 -47 -97 -62 -26 -6 -61 -17 -78 -24 -16 -8 -38 -16
-48 -19 -10 -3 -16 -10 -13 -14 5 -9 52 -3 176 21 85 17 110 25 110 38 0 5 8
9 19 9 10 0 24 7 31 15 30 37 113 58 136 35 7 -7 19 -4 37 10 15 12 31 18 37
15 6 -3 34 9 62 29 50 33 75 38 65 12 -17 -46 -18 -56 -3 -56 9 0 16 -4 16
-10 0 -5 16 -12 35 -16 25 -4 38 -14 47 -35 9 -21 19 -29 33 -27 27 3 31 -3
14 -29 -15 -25 -39 -31 -39 -10 0 6 -5 4 -11 -6 -6 -10 -8 -25 -5 -34 6 -14 8
-14 20 2 13 18 14 18 20 -2 4 -12 17 -23 29 -25 12 -2 23 -11 25 -20 5 -24
-35 -24 -60 -1 -19 17 -19 16 -13 -8 5 -22 2 -27 -17 -33 -21 -6 -22 -7 -6
-20 10 -7 15 -16 12 -19 -3 -3 -6 -22 -6 -41 0 -42 -10 -52 -31 -31 -18 17
-43 20 -52 4 -4 -6 2 -13 13 -16 16 -4 22 -16 27 -53 8 -55 2 -72 -23 -68 -12
2 -18 -6 -20 -27 -5 -39 -20 -57 -43 -50 -14 5 -17 2 -13 -9 7 -19 -31 -23
-42 -5 -4 7 -15 1 -29 -17 -21 -25 -24 -27 -30 -11 -4 9 -18 17 -31 17 -15 0
-24 6 -24 15 0 31 -39 3 -54 -38 -6 -18 -8 -18 -43 3 -27 16 -33 17 -23 5 12
-15 11 -19 -10 -36 -14 -10 -31 -17 -38 -14 -7 3 -10 0 -7 -5 3 -6 -1 -10 -9
-10 -16 0 -31 18 -22 27 3 3 17 6 31 6 14 0 25 3 25 8 0 5 -7 9 -15 9 -8 0
-15 7 -15 15 0 8 6 15 13 15 15 0 37 41 37 66 0 26 42 53 92 60 26 3 55 14 65
24 11 9 37 21 58 26 l39 10 -22 22 c-24 24 -23 24 23 24 17 -1 22 2 13 4 -29
9 -20 21 11 16 22 -3 32 1 40 16 8 15 8 21 0 24 -7 2 -9 13 -5 26 8 24 26 30
26 8 0 -8 7 -17 16 -20 12 -5 15 -2 10 10 -3 8 -6 25 -6 36 0 17 -3 18 -15 8
-8 -6 -23 -9 -34 -5 -16 5 -18 2 -14 -15 6 -24 -4 -26 -29 -3 -17 15 -18 15
-18 0 0 -10 -4 -17 -10 -17 -5 0 -10 5 -10 11 0 7 -8 17 -17 24 -15 11 -15 13
6 20 27 8 24 39 -4 43 -73 12 -148 13 -155 2 -8 -13 -60 -3 -60 12 0 6 7 8 15
4 8 -3 15 -1 15 5 0 6 5 7 10 4 6 -3 13 1 16 9 7 17 -12 46 -28 46 -6 0 -5 -7
2 -15 7 -9 10 -19 6 -23 -4 -4 -15 2 -24 13 -14 16 -21 18 -39 10 -13 -5 -23
-13 -23 -17 0 -5 -9 -8 -20 -8 -11 0 -20 -5 -20 -11 0 -6 -7 -9 -15 -5 -8 3
-21 -4 -29 -16 -8 -11 -19 -17 -26 -13 -6 4 -22 -3 -35 -15 -22 -21 -24 -21
-34 -3 -10 17 -10 17 -11 -1 0 -14 -5 -17 -23 -12 -16 4 -27 -1 -38 -15 -7
-12 -24 -25 -36 -29 -12 -5 -23 -19 -25 -31 -4 -32 -49 -53 -108 -50 -19 1
-41 -3 -49 -8 -12 -8 -11 -14 5 -38 10 -15 19 -35 20 -43 1 -8 2 -24 3 -35 1
-22 62 -52 81 -40 6 3 13 -1 16 -9 7 -18 69 -40 89 -32 8 3 17 1 20 -4 3 -5
19 -7 34 -4 26 5 30 3 36 -25 6 -27 9 -30 27 -20 18 10 19 8 17 -18 -1 -15 1
-36 5 -45 14 -31 2 -62 -29 -78 -16 -8 -32 -18 -35 -21 -15 -17 -44 -18 -55
-2 -7 9 -22 17 -33 18 -24 2 -38 -23 -22 -39 17 -17 12 -35 -9 -29 -10 3 -22
0 -25 -6 -10 -16 -26 -14 -26 3 0 8 -7 16 -15 20 -8 3 -15 1 -15 -4 0 -6 -16
-10 -35 -10 -24 0 -35 5 -35 14 0 9 -9 14 -22 14 -51 -3 -78 3 -78 16 0 8 -7
17 -16 20 -9 4 -14 13 -10 21 3 8 1 15 -4 15 -6 0 -10 -4 -10 -10 0 -5 -7 -10
-16 -10 -9 0 -14 7 -13 18 3 23 -21 72 -36 72 -6 0 -16 -5 -22 -11 -15 -15
-34 -2 -31 19 2 12 -5 18 -24 20 -27 3 -27 4 -12 28 9 13 20 21 25 18 5 -3 9
2 9 10 0 9 -8 16 -19 16 -11 0 -23 5 -27 11 -3 6 -19 16 -34 23 -23 9 -26 15
-19 34 5 12 16 22 26 22 15 0 16 2 3 10 -8 5 -41 7 -72 5 -46 -2 -60 0 -67 13
-5 10 -13 17 -18 17 -4 0 -8 12 -8 28 -1 23 3 27 27 27 36 0 45 -18 13 -26
-36 -9 -31 -26 8 -22 24 2 31 7 29 21 -2 10 3 17 13 17 19 0 19 9 0 46 -13 27
-13 34 6 72 11 22 29 44 39 47 11 4 17 12 13 20 -8 23 14 26 135 17 63 -4 116
-4 118 0 3 4 -11 22 -30 39 -20 17 -36 35 -36 39 0 16 57 68 67 62 5 -4 16
-18 23 -32 13 -25 13 -25 24 20 13 54 32 60 75 25 17 -15 31 -25 32 -23 0 1 3
14 5 28 6 33 16 41 55 44 45 4 74 -10 90 -43 l14 -26 3 42 c3 35 9 48 36 68
46 35 82 33 105 -6 20 -33 29 -29 29 14 -1 29 26 67 47 67 6 0 21 -10 32 -22z
m3239 -315 c3 -281 -2 -401 -14 -388 -8 7 -13 675 -6 687 3 5 8 7 11 4 3 -3 7
-139 9 -303z m-8556 259 c0 -9 16 -8 -237 -18 -149 -5 -203 -4 -203 4 0 11 20
12 348 20 50 1 92 -2 92 -6z m985 -11 c-12 -12 -665 -22 -665 -10 0 12 40 14
370 17 192 1 301 -1 295 -7z m10392 -118 c-5 -114 -7 -220 -6 -255 1 -51 -5
-98 -12 -98 -5 0 -9 42 -10 93 -2 378 -1 387 22 387 7 0 9 -44 6 -127z
m-11987 107 c12 -8 11 -10 -7 -10 -13 0 -23 5 -23 10 0 13 11 13 30 0z m75 0
c4 -6 -5 -10 -19 -10 -14 0 -26 5 -26 10 0 6 9 10 19 10 11 0 23 -4 26 -10z
m4622 -94 c8 -36 21 -73 29 -80 8 -8 14 -24 14 -35 0 -11 9 -22 20 -26 21 -7
25 -21 14 -50 -6 -14 -13 -10 -41 22 -50 55 -113 172 -113 210 0 25 5 32 23
35 32 6 37 -1 54 -76z m2513 -226 c0 -5 -5 -10 -11 -10 -5 0 -7 5 -4 10 3 6 8
10 11 10 2 0 4 -4 4 -10z m-2695 -40 c-6 -9 -9 -9 -16 1 -10 17 0 34 13 21 6
-6 7 -16 3 -22z m1935 10 c0 -5 -6 -10 -14 -10 -8 0 -18 5 -21 10 -3 6 3 10
14 10 12 0 21 -4 21 -10z m-269 -33 c-1 -12 -15 -9 -19 4 -3 6 1 10 8 8 6 -3
11 -8 11 -12z m-1645 -24 c-10 -10 -19 5 -10 18 6 11 8 11 12 0 2 -7 1 -15 -2
-18z m2688 14 c3 4 6 1 6 -5 0 -7 -4 -12 -9 -12 -4 0 -6 -11 -4 -24 4 -19 0
-24 -21 -28 -33 -7 -97 45 -78 64 9 9 13 7 18 -5 9 -24 34 -21 34 3 0 16 4 18
24 10 13 -5 27 -6 30 -3z m-116 -88 c-2 -6 -8 -10 -13 -10 -5 0 -11 4 -13 10
-2 6 4 11 13 11 9 0 15 -5 13 -11z m97 -28 c-3 -14 -8 -34 -11 -43 -3 -10 -1
-18 5 -18 6 0 11 -4 11 -10 0 -5 -9 -10 -20 -10 -12 0 -20 -7 -20 -17 0 -15
-2 -16 -10 -3 -7 11 -13 12 -32 3 -13 -7 -38 -15 -55 -18 -50 -10 -42 17 12
39 25 11 45 22 45 25 0 4 15 13 33 20 l32 14 -27 4 c-26 4 -36 21 -22 36 3 3
19 5 36 5 26 -1 29 -4 23 -27z m-175 -8 c0 -10 -32 -43 -42 -43 -4 0 -8 11 -8
25 0 20 5 25 25 25 14 0 25 -3 25 -7z m4948 -98 c1 -25 -2 -45 -8 -45 -11 0
-12 4 -13 35 -1 68 19 78 21 10z m-4998 -9 c-1 -5 3 -12 8 -15 6 -3 -1 -12
-14 -18 -20 -9 -26 -9 -31 3 -8 21 5 46 22 42 9 -2 15 -7 15 -12z m120 -36 c0
-6 -11 -16 -25 -22 -14 -6 -25 -16 -25 -22 0 -11 -29 25 -30 37 0 5 14 6 30 2
19 -4 30 -3 30 4 0 6 5 11 10 11 6 0 10 -5 10 -10z m2057 -57 c-2 -16 -4 -5
-4 22 0 28 2 40 4 28 2 -13 2 -35 0 -50z m-3337 37 c0 -5 -5 -10 -11 -10 -5 0
-7 5 -4 10 3 6 8 10 11 10 2 0 4 -4 4 -10z m6163 -274 c-1 -147 -4 -270 -7
-273 -17 -17 -21 25 -20 205 2 345 2 344 15 340 9 -3 12 -70 12 -272z m-6127
169 c-22 -33 -48 -34 -42 0 3 13 7 29 10 34 4 5 1 11 -6 13 -6 2 -8 10 -4 17
6 9 15 5 33 -13 24 -25 25 -27 9 -51z m1034 55 c0 -5 -7 -10 -15 -10 -8 0 -15
5 -15 10 0 6 7 10 15 10 8 0 15 -4 15 -10z m-1644 -16 c-3 -9 -6 -18 -6 -20 0
-2 -9 -4 -20 -4 -25 0 -25 9 -2 26 23 18 35 17 28 -2z m1714 7 c0 -14 -18 -23
-30 -16 -6 4 -8 11 -5 16 8 12 35 12 35 0z m-60 -57 c0 -3 -13 -3 -30 1 -30 7
-35 1 -31 -32 1 -7 -4 -13 -11 -13 -8 0 -14 11 -13 28 0 20 6 28 25 33 24 5
60 -5 60 -17z m-6073 -41 c-3 -10 -5 -2 -5 17 0 19 2 27 5 18 2 -10 2 -26 0
-35z m6153 12 c0 -8 -9 -15 -20 -15 -20 0 -26 11 -13 23 12 13 33 7 33 -8z
m-1200 2 c0 -2 -10 -12 -22 -23 l-23 -19 19 23 c18 21 26 27 26 19z m1008 -35
c2 -7 -3 -12 -12 -12 -9 0 -16 7 -16 16 0 17 22 14 28 -4z m97 -11 c-11 -10
-75 -23 -75 -15 0 7 42 23 65 23 11 1 15 -3 10 -8z m17 -70 c16 -19 16 -20 -4
-26 -25 -8 -41 6 -32 28 8 22 16 21 36 -2z m-97 -1 c-3 -5 -10 -10 -16 -10 -5
0 -9 5 -9 10 0 6 7 10 16 10 8 0 12 -4 9 -10z m285 0 c0 -5 -4 -10 -10 -10 -5
0 -10 5 -10 10 0 6 5 10 10 10 6 0 10 -4 10 -10z m-40 -34 c0 -3 -4 -8 -10
-11 -5 -3 -10 -1 -10 4 0 6 5 11 10 11 6 0 10 -2 10 -4z m-230 -30 c0 -16 -18
-31 -27 -22 -8 8 5 36 17 36 5 0 10 -6 10 -14z m-3210 -12 c0 -8 -4 -12 -10
-9 -5 3 -10 10 -10 16 0 5 5 9 10 9 6 0 10 -7 10 -16z m3165 -73 c3 -5 1 -12
-5 -16 -5 -3 -10 1 -10 9 0 18 6 21 15 7z m275 0 c0 -5 -7 -12 -16 -15 -14 -5
-15 -4 -4 9 14 17 20 19 20 6z m-1796 -127 c8 -21 3 -26 -17 -18 -9 3 -13 12
-10 20 7 19 19 18 27 -2z m1530 1 c-4 -8 -7 -15 -9 -15 -2 0 -5 7 -9 15 -3 9
0 15 9 15 9 0 12 -6 9 -15z m6099 -2 c-7 -2 -19 -2 -25 0 -7 3 -2 5 12 5 14 0
19 -2 13 -5z m-6145 -37 c-2 -14 -11 -22 -28 -24 -18 -2 -21 0 -11 6 7 6 10
15 7 21 -10 16 2 31 20 24 8 -3 14 -15 12 -27z m-5896 -28 c-9 -9 -12 -7 -12
12 0 19 3 21 12 12 9 -9 9 -15 0 -24z m11968 23 c-19 -11 -876 -24 -932 -14
l-43 8 50 6 c80 9 942 9 925 0z m-6184 -9 c6 -4 13 -14 16 -23 5 -12 -2 -15
-28 -16 -19 -1 -34 3 -34 8 0 5 10 9 23 10 12 0 16 3 10 6 -14 5 -18 23 -5 23
4 0 12 -4 18 -8z m4752 1 c-10 -2 -28 -2 -40 0 -13 2 -5 4 17 4 22 1 32 -1 23
-4z m382 3 c0 -9 -30 -14 -35 -6 -4 6 3 10 14 10 12 0 21 -2 21 -4z m-11678
-18 c-9 -9 -15 -9 -24 0 -9 9 -7 12 12 12 19 0 21 -3 12 -12z m2288 -38 c0 -5
-6 -11 -12 -11 -47 -5 -56 -7 -65 -12 -6 -4 -18 2 -28 13 -18 20 -17 20 43 20
35 0 62 -4 62 -10z m338 4 c28 -4 52 -11 52 -16 0 -10 -117 -10 -185 0 -36 5
-38 6 -15 13 33 9 83 10 148 3z m777 -4 c4 -6 -5 -10 -20 -10 -15 0 -24 4 -20
10 3 6 12 10 20 10 8 0 17 -4 20 -10z m3350 -18 c-8 -8 -25 10 -19 20 4 6 9 5
15 -3 4 -7 6 -15 4 -17z m-7080 8 c3 -5 1 -10 -4 -10 -6 0 -11 5 -11 10 0 6 2
10 4 10 3 0 8 -4 11 -10z m92 -7 c-16 -16 -18 -16 -34 0 -16 16 -15 17 17 17
32 0 33 -1 17 -17z m181 5 c-5 -15 -48 -24 -48 -10 0 14 12 22 33 22 10 0 17
-5 15 -12z m3365 5 c-13 -2 -35 -2 -50 0 -16 2 -5 4 22 4 28 0 40 -2 28 -4z
m3197 -3 c0 -5 -2 -10 -4 -10 -3 0 -8 5 -11 10 -3 6 -1 10 4 10 6 0 11 -4 11
-10z m100 0 c0 -5 -5 -10 -11 -10 -5 0 -7 5 -4 10 3 6 8 10 11 10 2 0 4 -4 4
-10z m-7095 -10 c3 -5 -3 -10 -14 -10 -11 0 -31 -5 -45 -11 -20 -9 -29 -9 -40
0 -8 7 -20 10 -26 6 -6 -4 -18 -4 -28 0 -14 5 -14 7 -2 15 20 13 147 13 155 0z
m2888 3 c-7 -2 -19 -2 -25 0 -7 3 -2 5 12 5 14 0 19 -2 13 -5z m-2836 -9 c-3
-3 -12 -4 -19 -1 -8 3 -5 6 6 6 11 1 17 -2 13 -5z m691 -1 c-10 -2 -26 -2 -35
0 -10 3 -2 5 17 5 19 0 27 -2 18 -5z m6067 -3 c3 -5 1 -10 -4 -10 -6 0 -11 5
-11 10 0 6 2 10 4 10 3 0 8 -4 11 -10z m225 -9 c0 -12 -9 -20 -26 -24 l-25 -4
22 23 c27 29 29 29 29 5z m-4161 -7 c2 -2 -15 -4 -38 -4 -25 0 -40 4 -36 10 5
8 63 3 74 -6z m131 6 c0 -6 -25 -9 -57 -9 -56 2 -56 2 -18 9 61 11 75 11 75 0z
m4250 0 c0 -5 -4 -10 -10 -10 -5 0 -10 5 -10 10 0 6 5 10 10 10 6 0 10 -4 10
-10z m-5260 -19 c0 -10 -94 -19 -292 -27 -131 -6 -148 -5 -148 9 0 14 20 17
138 20 75 1 174 4 220 5 45 1 82 -2 82 -7z m-580 -10 c0 -5 -3 -12 -7 -14 -5
-3 -99 -8 -210 -12 -181 -7 -203 -6 -203 8 0 18 16 19 283 25 88 2 137 0 137
-7z m107 -5 c-2 -6 -9 -11 -15 -10 -7 1 -23 2 -37 3 -41 2 -28 18 15 18 26 0
39 -4 37 -11z m-1767 -16 c10 -6 -17 -9 -82 -9 -55 0 -98 4 -98 10 0 12 161
12 180 -1z m1224 1 c3 -5 0 -11 -8 -14 -15 -6 -26 1 -26 15 0 11 27 10 34 -1z
m4879 -19 c-18 -5 -27 3 -18 17 4 7 10 7 20 -2 11 -10 11 -13 -2 -15z m1537
14 c0 -8 8 -16 18 -19 10 -2 2 -7 -20 -11 -20 -5 -41 -5 -47 -2 -14 9 -3 34
17 39 29 8 32 7 32 -7z m-520 -15 c0 -11 -9 -21 -21 -24 -24 -7 -20 -33 5 -31
12 2 14 -1 6 -11 -12 -15 -60 -8 -55 9 2 6 6 24 10 39 4 20 10 27 20 23 8 -3
15 -1 15 4 0 6 5 10 10 10 6 0 10 -8 10 -19z m393 -49 c-3 -12 -12 -22 -20
-22 -14 0 -11 10 10 38 13 17 17 11 10 -16z m107 0 c0 -13 -23 -32 -39 -32
-11 0 -10 4 4 20 19 21 35 26 35 12z m-210 -42 c10 -18 8 -20 -20 -20 -32 0
-38 8 -18 28 17 17 26 15 38 -8z m-1065 -31 c4 -6 5 -12 3 -14 -7 -7 -48 7
-48 16 0 13 37 11 45 -2z m1015 -49 c0 -5 -7 -10 -15 -10 -8 0 -15 5 -15 10 0
6 7 10 15 10 8 0 15 -4 15 -10z m-220 -20 c0 -5 -4 -10 -10 -10 -5 0 -10 5
-10 10 0 6 5 10 10 10 6 0 10 -4 10 -10z m-532 -392 c4 -20 -6 -22 -43 -8 -32
12 -26 26 12 25 18 0 29 -6 31 -17z m357 3 c3 -5 0 -13 -6 -17 -7 -4 -9 -3 -5
4 3 5 0 13 -6 15 -9 4 -10 6 -1 6 6 1 14 -3 18 -8z m-4010 -121 c3 -5 1 -10
-4 -10 -6 0 -11 5 -11 10 0 6 2 10 4 10 3 0 8 -4 11 -10z m2 -52 c-3 -8 -6 -5
-6 6 -1 11 2 17 5 13 3 -3 4 -12 1 -19z m4018 -48 c3 -5 -1 -10 -9 -10 -8 0
-18 5 -21 10 -3 6 1 10 9 10 8 0 18 -4 21 -10z m95 -40 c0 -5 -4 -10 -10 -10
-5 0 -10 5 -10 10 0 6 5 10 10 10 6 0 10 -4 10 -10z m-6882 -175 c0 -53 -3
-108 -8 -123 -7 -25 -8 -23 -13 18 -4 25 -5 70 -3 100 2 30 4 68 5 83 0 16 5
26 9 23 5 -3 9 -48 10 -101z m7052 -45 c0 -5 -4 -10 -10 -10 -5 0 -10 5 -10
10 0 6 5 10 10 10 6 0 10 -4 10 -10z m-7050 -120 c0 -5 -4 -10 -10 -10 -5 0
-10 5 -10 10 0 6 5 10 10 10 6 0 10 -4 10 -10z m-13 -52 c-3 -7 -5 -2 -5 12 0
14 2 19 5 13 2 -7 2 -19 0 -25z m13371 5 c-21 -2 -57 -2 -80 0 -24 2 -7 4 37
4 44 0 63 -2 43 -4z m189 1 c-3 -3 -12 -4 -19 -1 -8 3 -5 6 6 6 11 1 17 -2 13
-5z m-13264 -81 c-7 -2 -21 -2 -30 0 -10 3 -4 5 12 5 17 0 24 -2 18 -5z m91
-1 c2 -4 -13 -7 -35 -7 -21 0 -39 3 -39 7 0 5 15 8 34 8 19 0 37 -3 40 -8z
m2276 -12 c0 -5 -9 -10 -21 -10 -11 0 -17 5 -14 10 3 6 13 10 21 10 8 0 14 -4
14 -10z m-1740 -12 c0 -4 -57 -7 -127 -6 l-128 2 95 5 c139 9 160 8 160 -1z
m444 -15 c8 -31 17 -153 22 -308 2 -82 6 -161 8 -175 13 -88 26 -580 15 -580
-19 0 -44 322 -54 710 -3 107 -8 234 -11 283 -4 57 -3 87 4 87 6 0 13 -8 16
-17z m11096 -43 c0 -16 -4 -32 -10 -35 -6 -4 -10 10 -10 35 0 25 4 39 10 35 6
-3 10 -19 10 -35z m-23 -112 c-3 -8 -6 -5 -6 6 -1 11 2 17 5 13 3 -3 4 -12 1
-19z m3 -143 c0 -14 -4 -25 -9 -25 -4 0 -6 11 -3 25 2 14 6 25 8 25 2 0 4 -11
4 -25z m-8 -162 c-1 -152 -1 -158 -11 -147 -8 9 -2 259 6 250 3 -3 5 -49 5
-103z m-7114 -75 c13 -13 16 -48 4 -48 -14 0 -32 23 -32 42 0 21 11 23 28 6z
m7105 -202 c-3 -22 -10 -45 -16 -51 -6 -7 -8 6 -3 39 3 27 6 56 6 65 0 13 2
13 9 2 5 -7 6 -32 4 -55z m-3 -106 c0 -16 -4 -30 -10 -30 -5 0 -10 14 -10 30
0 17 5 30 10 30 6 0 10 -13 10 -30z m-10 -185 c0 -8 -4 -15 -10 -15 -5 0 -7 7
-4 15 4 8 8 15 10 15 2 0 4 -7 4 -15z m-10993 -117 c-2 -13 -4 -5 -4 17 -1 22
1 32 4 23 2 -10 2 -28 0 -40z m-1734 -190 c55 -1 52 -2 -28 -8 -102 -7 -169 0
-100 11 22 3 46 4 53 3 8 -2 41 -5 75 -6z m267 -13 c0 -9 -6 -12 -15 -9 -8 4
-12 10 -9 15 8 14 24 10 24 -6z m764 6 c3 -5 0 -11 -8 -14 -18 -7 -97 4 -91
13 6 10 93 12 99 1z m86 -1 c11 -7 4 -10 -25 -9 -31 0 -36 2 -20 9 26 11 28
11 45 0z m610 -5 c0 -12 -277 -19 -300 -8 -8 5 46 11 120 14 169 7 181 6 180
-6z m-873 -1 c-3 -3 -12 -4 -19 -1 -8 3 -5 6 6 6 11 1 17 -2 13 -5z m551 1
c-8 -9 -181 -12 -208 -4 -14 4 26 7 94 8 66 1 117 -1 114 -4z m-1085 -340 c4
-154 2 -267 -3 -275 -7 -11 -10 -6 -10 20 -6 438 -5 529 1 523 4 -5 9 -125 12
-268z m7 -357 c0 -19 -2 -20 -10 -8 -13 19 -13 30 0 30 6 0 10 -10 10 -22z m0
-110 c0 -17 -3 -28 -7 -25 -9 10 -10 57 -1 57 4 0 8 -14 8 -32z m-3 -85 c-3
-10 -5 -4 -5 12 0 17 2 24 5 18 2 -7 2 -21 0 -30z m13 -230 c0 -93 -3 -134
-10 -127 -9 9 -13 98 -11 227 1 20 6 37 11 37 6 0 10 -52 10 -137z m15 -213
c4 -14 15 -20 35 -20 16 0 32 -4 35 -10 4 -6 -13 -10 -44 -10 -39 0 -49 3 -45
14 3 8 0 17 -5 21 -6 3 -9 11 -6 16 10 15 23 10 30 -11z m235 -28 c0 -12 -118
-14 -125 -2 -4 6 17 10 59 10 36 0 66 -4 66 -8z m270 -2 c0 -6 -20 -9 -45 -8
-25 0 -45 5 -45 10 0 4 20 8 45 8 25 0 45 -5 45 -10z m193 3 c-13 -2 -33 -2
-45 0 -13 2 -3 4 22 4 25 0 35 -2 23 -4z m264 -19 c-3 -3 -12 -4 -19 -1 -8 3
-5 6 6 6 11 1 17 -2 13 -5z m-617 -8 c0 -9 -30 -14 -35 -6 -4 6 3 10 14 10 12
0 21 -2 21 -4z m235 -6 c-7 -11 -100 -8 -112 4 -3 3 22 6 56 6 41 0 60 -4 56
-10z m158 3 c-7 -2 -21 -2 -30 0 -10 3 -4 5 12 5 17 0 24 -2 18 -5z m80 0 c-7
-2 -19 -2 -25 0 -7 3 -2 5 12 5 14 0 19 -2 13 -5z m4638 -101 c25 -23 33 -38
36 -79 11 -106 -56 -231 -134 -252 -97 -27 -159 86 -118 211 43 132 142 186
216 120z m8304 -1232 c-3 -5 -10 -10 -16 -10 -5 0 -9 5 -9 10 0 6 7 10 16 10
8 0 12 -4 9 -10z m-14182 -27 c-7 -2 -19 -2 -25 0 -7 3 -2 5 12 5 14 0 19 -2
13 -5z m80 0 c-7 -2 -19 -2 -25 0 -7 3 -2 5 12 5 14 0 19 -2 13 -5z m6182
-633 c3 -5 1 -10 -4 -10 -6 0 -11 5 -11 10 0 6 2 10 4 10 3 0 8 -4 11 -10z
m-10 -310 c-3 -5 -10 -10 -16 -10 -5 0 -9 5 -9 10 0 6 7 10 16 10 8 0 12 -4 9
-10z m-5733 -385 c3 -13 1 -22 -3 -19 -9 5 -13 44 -5 44 2 0 6 -11 8 -25z"/>
<path d="M2252 13869 c1 -13 8 -23 13 -21 15 3 12 35 -3 40 -9 3 -13 -3 -10
-19z"/>
<path d="M2830 13856 c0 -9 5 -16 10 -16 6 0 10 4 10 9 0 6 -4 13 -10 16 -5 3
-10 -1 -10 -9z"/>
<path d="M2663 13794 c-10 -22 -9 -25 5 -22 9 2 18 13 20 26 5 30 -10 28 -25
-4z"/>
<path d="M2670 13620 c0 -5 4 -10 9 -10 6 0 13 5 16 10 3 6 -1 10 -9 10 -9 0
-16 -4 -16 -10z"/>
<path d="M2650 13532 c0 -4 9 -13 20 -20 22 -13 27 -3 8 16 -14 14 -28 16 -28
4z"/>
<path d="M2496 13494 c-3 -8 1 -17 9 -20 24 -10 32 0 14 18 -15 14 -18 14 -23
2z"/>
<path d="M2410 13406 c0 -2 7 -6 15 -10 8 -3 15 -1 15 4 0 6 -7 10 -15 10 -8
0 -15 -2 -15 -4z"/>
<path d="M2407 13298 c-6 -22 18 -25 27 -2 8 21 8 21 -8 21 -8 0 -17 -9 -19
-19z"/>
<path d="M2320 13270 c-11 -7 -8 -8 13 -6 15 1 30 6 34 9 10 11 -30 8 -47 -3z"/>
<path d="M2325 13220 c-3 -5 -1 -10 4 -10 6 0 11 5 11 10 0 6 -2 10 -4 10 -3
0 -8 -4 -11 -10z"/>
<path d="M2327 13183 c-16 -3 -26 -10 -24 -16 5 -17 58 -21 68 -6 8 14 3 30
-9 28 -4 -1 -20 -4 -35 -6z"/>
<path d="M1260 13620 c0 -5 5 -10 10 -10 6 0 10 5 10 10 0 6 -4 10 -10 10 -5
0 -10 -4 -10 -10z"/>
<path d="M1263 13573 c-28 -5 -31 -23 -4 -23 10 0 21 7 25 15 3 8 4 14 3 14
-1 -1 -12 -4 -24 -6z"/>
<path d="M1200 13546 c0 -2 7 -6 15 -10 8 -3 15 -1 15 4 0 6 -7 10 -15 10 -8
0 -15 -2 -15 -4z"/>
<path d="M762 13509 c-16 -25 8 -64 45 -74 38 -9 38 0 -1 31 -25 20 -32 32
-25 40 5 7 6 15 1 17 -4 3 -13 -3 -20 -14z"/>
<path d="M1184 13487 c-14 -8 -14 -11 2 -28 22 -24 34 -24 34 0 0 10 6 18 13
17 6 0 14 4 17 9 6 12 -44 14 -66 2z"/>
<path d="M1118 13443 c-30 -5 -33 -10 -19 -32 7 -11 13 -10 35 4 24 16 36 37
19 34 -5 -1 -20 -4 -35 -6z"/>
<path d="M857 13400 c-3 -11 -1 -20 4 -20 5 0 9 9 9 20 0 11 -2 20 -4 20 -2 0
-6 -9 -9 -20z"/>
<path d="M1199 13409 c-10 -6 -11 -11 -3 -19 7 -7 16 -6 28 3 16 12 16 15 4
19 -8 4 -21 2 -29 -3z"/>
<path d="M963 13331 c-12 -10 -23 -26 -25 -36 -2 -15 3 -19 27 -19 20 -1 30
-6 30 -16 0 -9 14 -17 38 -21 45 -7 47 1 7 25 -17 9 -28 22 -25 27 4 5 -1 9
-9 9 -8 0 -16 11 -18 24 -3 24 -4 24 -25 7z"/>
<path d="M1028 13313 c7 -3 16 -2 19 1 4 3 -2 6 -13 5 -11 0 -14 -3 -6 -6z"/>
<path d="M895 13260 c-3 -5 -3 -15 1 -21 5 -9 -3 -10 -30 -5 -32 6 -36 5 -36
-14 0 -22 10 -26 27 -9 7 7 13 7 17 0 4 -5 13 -8 21 -5 8 4 18 -1 21 -10 3 -9
15 -16 25 -16 27 0 23 17 -6 24 -21 5 -24 10 -18 36 5 29 -8 42 -22 20z"/>
<path d="M1095 13120 c3 -5 8 -10 11 -10 2 0 4 5 4 10 0 6 -5 10 -11 10 -5 0
-7 -4 -4 -10z"/>
<path d="M1070 13100 c-8 -5 -11 -12 -7 -16 4 -4 13 -2 19 4 15 15 7 24 -12
12z"/>
<path d="M1167 13093 c-12 -12 -7 -22 8 -17 8 4 15 10 15 15 0 11 -14 12 -23
2z"/>
<path d="M946 13074 c-5 -14 -4 -15 9 -4 17 14 19 20 6 20 -5 0 -12 -7 -15
-16z"/>
<path d="M1110 13070 c0 -5 5 -10 10 -10 6 0 10 5 10 10 0 6 -4 10 -10 10 -5
0 -10 -4 -10 -10z"/>
<path d="M1221 13051 c-10 -6 -10 -10 -1 -16 13 -8 24 -1 19 14 -3 6 -10 7
-18 2z"/>
<path d="M1025 13043 c-11 -3 -24 -12 -30 -20 -9 -12 -15 -12 -39 -2 -23 11
-29 10 -37 -2 -14 -22 -5 -33 30 -36 37 -3 111 33 111 54 0 14 -2 14 -35 6z"/>
<path d="M1110 13040 c0 -5 5 -10 10 -10 6 0 10 5 10 10 0 6 -4 10 -10 10 -5
0 -10 -4 -10 -10z"/>
<path d="M1105 12990 c3 -5 11 -10 16 -10 6 0 7 5 4 10 -3 6 -11 10 -16 10 -6
0 -7 -4 -4 -10z"/>
<path d="M1141 12953 c-17 -11 -28 -12 -51 -4 -16 5 -32 6 -35 2 -8 -14 7 -21
41 -21 41 0 102 25 81 33 -8 3 -24 -1 -36 -10z"/>
<path d="M924 12885 c-18 -13 -17 -14 17 -15 19 0 41 -6 47 -12 10 -10 14 -8
18 9 3 12 13 24 23 26 9 3 -7 5 -35 6 -30 1 -58 -5 -70 -14z"/>
<path d="M1176 12880 c7 -7 19 -7 35 -1 23 9 22 10 -10 10 -24 1 -32 -2 -25
-9z"/>
<path d="M2270 12890 c0 -5 7 -10 15 -10 8 0 15 5 15 10 0 6 -7 10 -15 10 -8
0 -15 -4 -15 -10z"/>
<path d="M1640 12520 c0 -11 -5 -20 -11 -20 -6 0 -4 -7 5 -15 16 -17 36 -20
36 -6 0 5 10 11 21 13 12 2 28 13 37 26 14 22 14 22 -37 22 -44 0 -51 -3 -51
-20z"/>
<path d="M2006 12241 c-5 -8 -2 -20 8 -29 17 -17 19 -9 7 22 -6 15 -10 16 -15
7z"/>
<path d="M1840 12220 c0 -5 5 -10 10 -10 6 0 10 5 10 10 0 6 -4 10 -10 10 -5
0 -10 -4 -10 -10z"/>
<path d="M2075 12223 c-30 -7 -43 -23 -18 -23 11 0 26 7 33 15 7 8 11 14 9 14
-2 -1 -13 -3 -24 -6z"/>
<path d="M1930 12200 c0 -13 11 -13 30 0 12 8 11 10 -7 10 -13 0 -23 -4 -23
-10z"/>
<path d="M2020 12172 c0 -5 7 -15 15 -22 8 -7 15 -8 15 -2 0 5 -7 15 -15 22
-8 7 -15 8 -15 2z"/>
<path d="M8500 9425 c0 -13 -7 -42 -16 -64 -9 -22 -14 -48 -12 -58 3 -15 7
-14 23 10 21 33 34 137 16 137 -6 0 -11 -11 -11 -25z"/>
<path d="M1200 11058 c0 -12 3 -18 7 -14 11 10 12 36 2 36 -5 0 -9 -10 -9 -22z"/>
<path d="M1080 11034 c0 -8 5 -12 10 -9 6 4 8 11 5 16 -9 14 -15 11 -15 -7z"/>
<path d="M7176 10261 c-10 -4 -48 -6 -84 -5 -36 2 -74 -2 -84 -7 -11 -6 -25
-6 -35 -1 -11 6 -28 5 -49 -4 -18 -8 -49 -14 -68 -14 -19 0 -38 -4 -41 -10 -3
-5 -21 -10 -40 -10 -21 0 -39 -7 -47 -18 -8 -11 -37 -22 -78 -30 -43 -8 -71
-18 -82 -32 -10 -12 -19 -16 -23 -10 -10 15 -25 12 -25 -6 0 -10 -6 -14 -15
-10 -9 3 -15 0 -15 -9 0 -14 -12 -20 -34 -16 -4 1 -13 -5 -20 -12 -6 -8 -32
-20 -58 -28 -27 -7 -48 -19 -48 -25 0 -21 -29 -38 -43 -26 -10 8 -16 6 -26
-10 -11 -18 -11 -20 1 -15 8 3 21 1 29 -4 13 -8 -6 -11 -91 -13 -14 -1 -31 -5
-37 -9 -7 -5 -13 -4 -13 1 0 6 -16 10 -35 9 -19 -1 -35 -5 -35 -9 0 -4 -7 -8
-15 -8 -7 0 -18 -7 -23 -17 -5 -9 -16 -14 -24 -11 -8 3 -34 2 -59 -3 -24 -6
-66 -12 -94 -15 -27 -2 -67 -11 -88 -19 -20 -8 -48 -15 -62 -15 -13 0 -26 -4
-30 -10 -3 -5 -12 -7 -19 -4 -7 3 -19 -2 -26 -10 -7 -9 -17 -13 -22 -10 -5 3
-17 0 -26 -8 -9 -8 -43 -30 -74 -48 -32 -19 -58 -37 -58 -41 0 -4 -21 -15 -47
-24 -27 -10 -60 -31 -75 -48 l-28 -31 31 -14 c33 -17 34 -34 0 -42 -29 -7 -32
-24 -3 -28 14 -2 22 -10 22 -23 0 -13 -7 -19 -22 -19 -20 0 -23 -5 -22 -39 0
-22 10 -51 23 -70 14 -19 21 -42 19 -59 -3 -24 0 -27 30 -30 32 -3 33 -4 18
-21 -16 -17 -14 -19 25 -24 44 -6 85 5 103 27 6 7 27 19 46 26 19 7 42 19 50
25 26 20 73 34 118 34 47 0 50 -4 25 -32 -17 -19 -17 -19 7 -12 44 14 6 -20
-49 -44 -27 -11 -51 -28 -55 -36 -3 -9 -16 -20 -28 -25 -52 -20 87 -9 183 15
163 42 275 101 346 183 27 31 53 63 58 71 5 8 12 77 16 154 6 123 10 142 28
161 17 16 25 18 39 10 9 -6 34 -9 55 -6 22 2 49 0 60 -6 12 -5 37 -15 55 -22
19 -8 32 -20 33 -31 3 -47 33 -99 92 -161 43 -45 64 -59 98 -67 84 -17 248
-18 321 -1 63 14 261 85 291 104 12 7 45 22 74 32 57 19 62 35 8 29 -41 -6
-47 10 -7 20 44 11 152 65 152 76 0 12 25 39 35 39 14 0 59 41 72 67 19 37 10
53 -30 53 -44 0 -71 28 -63 67 6 24 2 30 -24 41 -16 8 -30 20 -30 28 0 8 -7
14 -16 14 -15 0 -15 2 -1 24 20 29 13 38 -20 25 -18 -7 -30 -6 -42 3 -36 28
-40 48 -11 48 11 0 20 4 20 9 0 9 -94 51 -116 51 -7 0 -14 4 -16 8 -4 12 -109
22 -132 13z m-981 -331 c3 -5 -1 -10 -10 -10 -9 0 -13 5 -10 10 3 6 8 10 10
10 2 0 7 -4 10 -10z m-765 -411 c0 -6 -4 -7 -10 -4 -5 3 -10 11 -10 16 0 6 5
7 10 4 6 -3 10 -11 10 -16z"/>
<path d="M5255 9560 c3 -5 8 -10 11 -10 2 0 4 5 4 10 0 6 -5 10 -11 10 -5 0
-7 -4 -4 -10z"/>
<path d="M7400 8284 c0 -8 5 -12 10 -9 6 3 10 10 10 16 0 5 -4 9 -10 9 -5 0
-10 -7 -10 -16z"/>
<path d="M6450 8262 c0 -11 -3 -27 -6 -36 -4 -11 0 -16 14 -16 31 0 36 17 13
46 -19 25 -21 25 -21 6z"/>
<path d="M6561 8251 c-15 -28 -14 -31 14 -31 28 0 33 21 11 39 -12 10 -17 8
-25 -8z"/>
<path d="M7330 7915 c0 -8 5 -15 10 -15 6 0 10 7 10 15 0 8 -4 15 -10 15 -5 0
-10 -7 -10 -15z"/>
<path d="M6770 7645 c-7 -9 -10 -18 -7 -22 8 -7 37 15 37 28 0 14 -16 11 -30
-6z"/>
<path d="M5950 2691 c-12 -24 -13 -71 -1 -90 12 -19 41 -6 41 19 0 12 4 30 10
40 5 10 7 26 4 34 -9 22 -41 20 -54 -3z"/>
<path d="M8203 7663 c-24 -9 -13 -18 22 -19 20 0 34 4 32 9 -4 12 -36 17 -54
10z"/>
<path d="M8264 7569 c-3 -6 -1 -16 5 -22 8 -8 11 -5 11 11 0 24 -5 28 -16 11z"/>
<path d="M8450 7470 c0 -5 5 -10 10 -10 6 0 10 5 10 10 0 6 -4 10 -10 10 -5 0
-10 -4 -10 -10z"/>
<path d="M8460 7363 c0 -108 20 -221 61 -340 22 -65 49 -133 60 -151 10 -18
19 -37 19 -42 0 -5 5 -21 11 -37 12 -28 14 -37 23 -83 2 -14 8 -39 11 -56 6
-25 2 -37 -14 -53 l-21 -21 25 -12 c26 -12 31 -23 15 -33 -5 -3 -10 -13 -10
-21 0 -9 5 -12 12 -8 8 5 9 2 5 -9 -13 -34 3 -16 19 21 24 55 25 206 1 252
l-18 35 30 -34 c19 -22 35 -57 46 -100 21 -87 28 -99 49 -82 17 15 22 46 6 36
-5 -3 -10 0 -10 7 0 7 9 19 20 26 23 14 27 50 5 58 -8 4 -15 18 -15 34 0 16
-7 30 -15 34 -10 3 -15 19 -15 47 0 33 3 40 16 35 9 -3 18 -6 21 -6 3 0 0 -7
-7 -15 -15 -18 1 -20 18 -3 17 17 15 25 -9 31 -12 3 -18 10 -14 17 4 6 4 23 0
37 -6 24 -7 25 -25 8 -18 -16 -20 -16 -25 -1 -3 9 -8 24 -12 34 -3 9 -5 23 -4
30 1 6 -5 12 -14 12 -19 0 -19 14 0 30 20 16 10 30 -22 30 -22 0 -24 3 -19 25
5 20 3 25 -12 25 -18 0 -52 32 -52 50 0 16 20 22 90 25 77 4 138 30 77 33 -18
1 -50 4 -72 6 -22 3 -52 5 -68 5 -37 1 -68 61 -48 92 10 18 10 24 -5 40 -9 11
-19 17 -22 14 -3 -2 -10 2 -16 10 -6 8 -26 18 -43 21 l-33 7 0 -60z"/>
<path d="M8136 7119 c-20 -15 -26 -28 -22 -42 3 -12 1 -26 -5 -33 -18 -22 8
-25 32 -3 17 14 20 22 12 25 -20 9 -15 18 17 33 31 13 36 34 9 39 -9 1 -28 -7
-43 -19z"/>
<path d="M8185 7050 c-3 -5 1 -10 10 -10 9 0 13 5 10 10 -3 6 -8 10 -10 10 -2
0 -7 -4 -10 -10z"/>
<path d="M8835 7037 c-4 -10 -5 -21 -1 -24 10 -10 18 4 13 24 -4 17 -4 17 -12
0z"/>
<path d="M8146 6983 c-11 -11 -6 -23 9 -23 8 0 15 4 15 9 0 13 -16 22 -24 14z"/>
<path d="M7675 6929 c-4 -6 -5 -12 -2 -15 2 -3 7 2 10 11 7 17 1 20 -8 4z"/>
<path d="M8153 6933 c-25 -5 -40 -33 -17 -33 21 0 54 19 54 30 0 6 -3 9 -7 9
-5 -1 -18 -4 -30 -6z"/>
<path d="M8051 6898 c-12 -31 -9 -32 28 -11 38 22 40 33 6 33 -17 0 -28 -7
-34 -22z"/>
<path d="M6482 6898 c6 -18 28 -21 28 -4 0 9 -7 16 -16 16 -9 0 -14 -5 -12
-12z"/>
<path d="M6555 6900 c-3 -5 -1 -10 4 -10 6 0 11 5 11 10 0 6 -2 10 -4 10 -3 0
-8 -4 -11 -10z"/>
<path d="M7633 6898 c-16 -21 -23 -48 -12 -48 16 0 39 26 39 44 0 19 -14 21
-27 4z"/>
<path d="M8230 6880 c0 -5 7 -7 15 -4 8 4 15 8 15 10 0 2 -7 4 -15 4 -8 0 -15
-4 -15 -10z"/>
<path d="M5982 6846 c-6 -14 -29 -34 -51 -45 -56 -29 -81 -65 -80 -115 1 -22
0 -78 -1 -124 -2 -104 7 -203 25 -267 38 -139 61 -203 82 -237 13 -21 23 -42
23 -48 0 -5 4 -10 10 -10 5 0 10 -27 12 -60 3 -66 20 -81 29 -25 4 21 2 35 -5
35 -6 0 -6 4 1 11 7 7 8 21 3 40 -5 16 -5 31 0 34 9 5 2 43 -10 60 -4 6 -13
28 -19 50 -7 22 -17 50 -23 62 -6 11 -9 26 -6 33 2 7 17 -14 33 -46 39 -75
175 -217 270 -283 73 -50 240 -136 287 -147 34 -8 75 -14 57 -8 -8 2 -23 18
-33 34 -9 17 -23 30 -29 30 -7 0 -18 9 -25 20 -9 15 -17 18 -34 12 -30 -11
-58 -4 -52 12 3 8 -2 16 -10 19 -9 4 -16 14 -17 24 0 17 -1 17 -7 1 -6 -15
-13 -11 -50 23 -31 28 -49 38 -63 34 -13 -4 -19 -2 -19 8 0 17 -16 49 -46 92
-11 17 -29 50 -39 75 -11 25 -28 61 -38 80 -40 73 -81 245 -107 455 -21 170
-43 225 -68 171z m-43 -129 c13 -16 5 -27 -20 -27 -21 0 -33 15 -24 30 9 14
31 12 44 -3z"/>
<path d="M8110 6850 c0 -5 6 -10 14 -10 8 0 18 5 21 10 3 6 -3 10 -14 10 -12
0 -21 -4 -21 -10z"/>
<path d="M6600 6831 c0 -11 26 -22 34 -14 12 12 5 23 -14 23 -11 0 -20 -4 -20
-9z"/>
<path d="M6515 6790 c3 -5 11 -10 16 -10 6 0 7 5 4 10 -3 6 -11 10 -16 10 -6
0 -7 -4 -4 -10z"/>
<path d="M6650 6790 c-9 -6 -10 -10 -3 -10 6 0 15 5 18 10 8 12 4 12 -15 0z"/>
<path d="M8025 6780 c-3 -5 -2 -10 4 -10 5 0 13 5 16 10 3 6 2 10 -4 10 -5 0
-13 -4 -16 -10z"/>
<path d="M6660 6765 c-7 -8 -17 -12 -24 -8 -7 4 -8 2 -1 -5 11 -12 55 -5 55 9
0 16 -18 18 -30 4z"/>
<path d="M7440 6770 c0 -5 5 -10 11 -10 5 0 7 5 4 10 -3 6 -8 10 -11 10 -2 0
-4 -4 -4 -10z"/>
<path d="M8049 6754 c-12 -14 -11 -16 5 -13 11 2 21 10 24 17 5 17 -13 15 -29
-4z"/>
<path d="M7845 6740 c3 -5 8 -10 11 -10 2 0 4 5 4 10 0 6 -5 10 -11 10 -5 0
-7 -4 -4 -10z"/>
<path d="M8125 6740 c-3 -5 -1 -10 4 -10 6 0 11 5 11 10 0 6 -2 10 -4 10 -3 0
-8 -4 -11 -10z"/>
<path d="M7440 6725 c0 -8 5 -15 10 -15 6 0 10 7 10 15 0 8 -4 15 -10 15 -5 0
-10 -7 -10 -15z"/>
<path d="M7760 6710 c0 -5 5 -10 10 -10 6 0 10 5 10 10 0 6 -4 10 -10 10 -5 0
-10 -4 -10 -10z"/>
<path d="M6710 6695 c-10 -12 -10 -15 3 -15 9 0 24 -9 34 -19 10 -11 30 -22
45 -26 21 -5 29 -2 38 15 12 22 11 22 -24 16 -32 -6 -37 -4 -46 19 -11 28 -31
32 -50 10z"/>
<path d="M7667 6693 c-25 -24 16 -31 47 -8 19 14 18 15 -10 15 -17 0 -34 -3
-37 -7z"/>
<path d="M7853 6686 c-22 -10 -31 -26 -15 -26 10 1 46 29 41 33 -2 2 -14 -2
-26 -7z"/>
<path d="M7449 6674 c-12 -14 -11 -16 5 -13 11 2 21 10 24 17 5 17 -13 15 -29
-4z"/>
<path d="M7786 6682 c-4 -7 -4 -16 -1 -22 3 -5 0 -10 -8 -10 -8 0 -18 -7 -21
-16 -5 -13 -4 -14 7 -6 10 9 16 9 25 0 8 -8 15 -8 27 2 14 12 15 15 3 24 -8 6
-17 18 -20 26 -3 10 -6 11 -12 2z"/>
<path d="M7584 6655 c-5 -12 -14 -14 -34 -10 -16 4 -31 1 -35 -5 -5 -8 -10 -8
-20 0 -16 13 -55 -7 -55 -27 0 -7 -10 -13 -22 -13 -25 0 -16 -13 13 -17 13 -2
23 5 29 22 10 25 30 35 30 14 0 -7 10 -9 25 -5 22 6 25 3 25 -21 l0 -28 23 33
c12 17 30 34 40 38 19 6 19 25 -1 32 -7 2 -15 -4 -18 -13z"/>
<path d="M6640 6645 c0 -9 6 -12 15 -9 8 4 15 10 15 15 0 5 -7 9 -15 9 -8 0
-15 -7 -15 -15z"/>
<path d="M7671 6615 c-13 -14 -21 -25 -19 -25 14 0 68 33 68 41 0 17 -25 9
-49 -16z"/>
<path d="M6558 6623 c7 -3 16 -2 19 1 4 3 -2 6 -13 5 -11 0 -14 -3 -6 -6z"/>
<path d="M7840 6615 c-17 -20 7 -20 34 0 19 15 19 15 -1 15 -11 0 -26 -7 -33
-15z"/>
<path d="M6685 6610 c-3 -5 3 -10 14 -10 12 0 21 5 21 10 0 6 -6 10 -14 10 -8
0 -18 -4 -21 -10z"/>
<path d="M6745 6590 c3 -5 14 -10 23 -10 15 0 15 2 2 10 -20 13 -33 13 -25 0z"/>
<path d="M7472 6577 c-17 -12 -32 -28 -32 -34 0 -19 11 -15 49 16 41 34 27 49
-17 18z"/>
<path d="M7600 6585 c0 -8 4 -15 9 -15 5 0 11 7 15 15 3 9 0 15 -9 15 -8 0
-15 -7 -15 -15z"/>
<path d="M6590 6570 c8 -5 23 -10 33 -10 9 0 17 -4 17 -10 0 -5 12 -10 27 -10
25 0 26 1 12 16 -9 8 -36 17 -60 19 -30 3 -39 1 -29 -5z"/>
<path d="M7815 6570 c-3 -5 -1 -10 4 -10 6 0 11 5 11 10 0 6 -2 10 -4 10 -3 0
-8 -4 -11 -10z"/>
<path d="M6537 6559 c7 -7 15 -10 18 -7 3 3 -2 9 -12 12 -14 6 -15 5 -6 -5z"/>
<path d="M6770 6560 c0 -13 38 -32 51 -25 14 10 -9 35 -32 35 -11 0 -19 -4
-19 -10z"/>
<path d="M6884 6555 c16 -16 46 -20 46 -6 0 10 -24 21 -47 21 -13 0 -13 -2 1
-15z"/>
<path d="M7920 6560 c0 -5 4 -10 9 -10 6 0 13 5 16 10 3 6 -1 10 -9 10 -9 0
-16 -4 -16 -10z"/>
<path d="M8780 6540 c-8 -14 -8 -26 0 -40 14 -27 28 -25 36 5 12 48 -15 74
-36 35z"/>
<path d="M7755 6540 c-3 -5 -1 -10 4 -10 6 0 11 5 11 10 0 6 -2 10 -4 10 -3 0
-8 -4 -11 -10z"/>
<path d="M8050 6540 c0 -5 5 -10 10 -10 6 0 10 5 10 10 0 6 -4 10 -10 10 -5 0
-10 -4 -10 -10z"/>
<path d="M7567 6526 c-9 -7 -17 -18 -17 -23 0 -5 -13 -8 -30 -5 -16 2 -27 9
-24 14 4 6 -2 8 -12 6 -9 -1 -16 -5 -13 -8 2 -3 -4 -16 -14 -30 -22 -32 -22
-59 1 -55 9 2 23 4 30 4 7 1 17 12 22 26 5 14 16 25 23 25 14 0 63 47 56 54
-2 2 -12 -1 -22 -8z m-77 -56 c0 -5 -7 -10 -15 -10 -8 0 -15 5 -15 10 0 6 7
10 15 10 8 0 15 -4 15 -10z"/>
<path d="M6690 6520 c0 -5 9 -10 21 -10 11 0 17 5 14 10 -3 6 -13 10 -21 10
-8 0 -14 -4 -14 -10z"/>
<path d="M6802 6508 c3 -7 17 -14 32 -16 18 -2 30 -12 36 -28 5 -13 16 -24 25
-24 23 0 18 14 -13 42 -33 29 -86 47 -80 26z"/>
<path d="M7592 6474 c-24 -17 -30 -44 -8 -44 12 0 46 40 46 55 0 9 -15 5 -38
-11z"/>
<path d="M6660 6435 c0 -10 7 -15 18 -13 21 4 19 22 -2 26 -10 2 -16 -3 -16
-13z"/>
<path d="M8804 6436 c-5 -13 23 -94 29 -85 2 2 2 25 -1 52 -4 46 -17 61 -28
33z"/>
<path d="M6825 6430 c-3 -5 -1 -10 4 -10 6 0 11 5 11 10 0 6 -2 10 -4 10 -3 0
-8 -4 -11 -10z"/>
<path d="M7806 6425 c-11 -8 -17 -18 -13 -22 10 -10 59 15 52 27 -8 13 -16 12
-39 -5z"/>
<path d="M7525 6407 c-14 -11 -15 -16 -5 -22 11 -7 29 9 30 28 0 10 -3 9 -25
-6z"/>
<path d="M6565 6390 c3 -5 13 -10 21 -10 8 0 12 5 9 10 -3 6 -13 10 -21 10 -8
0 -12 -4 -9 -10z"/>
<path d="M6640 6380 c0 -13 7 -20 19 -20 11 0 28 -3 38 -7 16 -6 16 -5 4 10
-9 11 -10 17 -2 17 6 0 11 5 11 10 0 6 -16 10 -35 10 -28 0 -35 -4 -35 -20z"/>
<path d="M7660 6375 c-8 -9 -8 -15 -2 -15 12 0 26 19 19 26 -2 2 -10 -2 -17
-11z"/>
<path d="M8611 6364 c0 -11 3 -14 6 -6 3 7 2 16 -1 19 -3 4 -6 -2 -5 -13z"/>
<path d="M6817 6359 c7 -7 15 -10 18 -7 3 3 -2 9 -12 12 -14 6 -15 5 -6 -5z"/>
<path d="M8540 6350 c0 -5 7 -10 16 -10 8 0 12 5 9 10 -3 6 -10 10 -16 10 -5
0 -9 -4 -9 -10z"/>
<path d="M6873 6338 c2 -7 10 -13 17 -13 7 0 15 6 18 13 2 7 -5 12 -18 12 -13
0 -20 -5 -17 -12z"/>
<path d="M6755 6330 c3 -5 11 -10 16 -10 6 0 7 5 4 10 -3 6 -11 10 -16 10 -6
0 -7 -4 -4 -10z"/>
<path d="M8573 6315 c-13 -12 -23 -27 -23 -32 0 -17 -27 -35 -35 -23 -3 5 -14
10 -23 10 -13 0 -13 -2 4 -15 19 -15 19 -15 0 -30 -11 -8 -26 -15 -33 -15 -7
0 -13 -11 -13 -25 0 -14 -5 -25 -11 -25 -5 0 -8 -4 -5 -9 4 -5 1 -11 -4 -13
-6 -2 -12 -10 -13 -19 -2 -8 -13 -26 -25 -39 -23 -25 -28 -40 -14 -40 30 0
222 248 222 286 0 17 0 17 -27 -11z"/>
<path d="M6790 6320 c0 -13 28 -25 38 -16 3 4 0 11 -8 16 -20 13 -30 12 -30 0z"/>
<path d="M7440 6304 c1 -27 50 -44 50 -18 0 8 -4 14 -9 14 -5 0 -16 3 -25 6
-9 3 -16 2 -16 -2z"/>
<path d="M7635 6300 c-3 -5 3 -10 14 -10 12 0 21 5 21 10 0 6 -6 10 -14 10 -8
0 -18 -4 -21 -10z"/>
<path d="M6760 6259 c0 -5 5 -7 10 -4 6 3 10 8 10 11 0 2 -4 4 -10 4 -5 0 -10
-5 -10 -11z"/>
<path d="M8877 6210 c4 -36 7 -84 7 -107 1 -22 4 -39 9 -36 4 2 7 13 7 23 0
12 9 22 23 25 34 9 30 65 -7 85 -14 8 -31 29 -36 45 -6 21 -7 11 -3 -35z"/>
<path d="M7055 6220 c-3 -5 3 -10 15 -10 12 0 18 5 15 10 -3 6 -10 10 -15 10
-5 0 -12 -4 -15 -10z"/>
<path d="M6680 6211 c0 -6 5 -13 10 -16 6 -3 10 1 10 9 0 9 -4 16 -10 16 -5 0
-10 -4 -10 -9z"/>
<path d="M7575 6200 c3 -5 8 -10 11 -10 2 0 4 5 4 10 0 6 -5 10 -11 10 -5 0
-7 -4 -4 -10z"/>
<path d="M7655 6180 c3 -5 8 -10 11 -10 2 0 4 5 4 10 0 6 -5 10 -11 10 -5 0
-7 -4 -4 -10z"/>
<path d="M7700 6180 c0 -5 5 -10 10 -10 6 0 10 5 10 10 0 6 -4 10 -10 10 -5 0
-10 -4 -10 -10z"/>
<path d="M6710 6171 c0 -5 7 -11 15 -15 9 -3 15 0 15 9 0 8 -7 15 -15 15 -8 0
-15 -4 -15 -9z"/>
<path d="M7590 6140 c-13 -8 -12 -10 3 -10 9 0 17 5 17 10 0 12 -1 12 -20 0z"/>
<path d="M7755 6100 c-3 -5 -1 -10 4 -10 6 0 11 5 11 10 0 6 -2 10 -4 10 -3 0
-8 -4 -11 -10z"/>
<path d="M7580 6051 c0 -6 5 -13 10 -16 6 -3 10 1 10 9 0 9 -4 16 -10 16 -5 0
-10 -4 -10 -9z"/>
<path d="M8339 6013 c-13 -17 -13 -17 6 -3 11 8 22 16 24 17 2 2 0 3 -6 3 -6
0 -17 -8 -24 -17z"/>
<path d="M8305 5990 c-3 -5 -1 -10 4 -10 6 0 11 5 11 10 0 6 -2 10 -4 10 -3 0
-8 -4 -11 -10z"/>
<path d="M8260 5960 c0 -5 -7 -10 -15 -10 -9 0 -18 -7 -21 -15 -4 -8 -10 -12
-15 -9 -5 3 -9 -2 -9 -11 0 -12 10 -9 45 15 48 33 53 40 30 40 -8 0 -15 -4
-15 -10z"/>
<path d="M6941 5931 c-8 -6 -9 -11 -3 -15 6 -3 14 -1 17 5 9 14 2 20 -14 10z"/>
<path d="M6470 5891 c0 -5 7 -11 14 -14 10 -4 13 -1 9 9 -6 15 -23 19 -23 5z"/>
<path d="M7746 5883 c-6 -14 -5 -15 5 -6 7 7 10 15 7 18 -3 3 -9 -2 -12 -12z"/>
<path d="M8144 5885 c-4 -8 -12 -15 -19 -15 -7 0 -19 -7 -26 -16 -11 -13 -5
-12 26 4 66 35 74 42 47 42 -12 0 -25 -7 -28 -15z"/>
<path d="M7691 5877 c-9 -11 -8 -17 4 -27 12 -10 16 -9 21 5 9 23 -10 40 -25
22z"/>
<path d="M8060 5865 c0 -9 5 -15 11 -13 6 2 11 8 11 13 0 5 -5 11 -11 13 -6 2
-11 -4 -11 -13z"/>
<path d="M9717 5864 c-4 -4 -4 -10 -1 -15 6 -10 34 0 34 12 0 10 -24 12 -33 3z"/>
<path d="M6847 5853 c-4 -3 3 -18 15 -31 16 -17 19 -26 11 -29 -18 -7 -16 -30
3 -37 14 -6 16 0 11 35 -5 42 -27 75 -40 62z"/>
<path d="M7760 5839 c0 -5 5 -7 10 -4 6 3 10 8 10 11 0 2 -4 4 -10 4 -5 0 -10
-5 -10 -11z"/>
<path d="M6740 5790 c0 -5 5 -10 11 -10 5 0 7 5 4 10 -3 6 -8 10 -11 10 -2 0
-4 -4 -4 -10z"/>
<path d="M7790 5785 c0 -8 7 -15 15 -15 9 0 12 6 9 15 -4 8 -10 15 -15 15 -5
0 -9 -7 -9 -15z"/>
<path d="M8756 5566 c-39 -23 -72 -49 -74 -57 -4 -11 -2 -12 9 -1 15 14 33 16
25 3 -7 -10 20 -9 30 2 4 4 18 4 30 1 15 -4 24 -2 24 6 0 6 5 8 10 5 12 -7 43
61 35 75 -9 15 -14 13 -89 -34z"/>
<path d="M6600 945 c0 -8 2 -15 4 -15 2 0 6 7 10 15 3 8 1 15 -4 15 -6 0 -10
-7 -10 -15z"/>
<path d="M6668 583 c7 -3 16 -2 19 1 4 3 -2 6 -13 5 -11 0 -14 -3 -6 -6z"/>
<path d="M5697 222 c-31 -34 -11 -92 31 -92 18 0 20 4 15 34 -3 19 -1 36 6 40
6 4 11 14 11 22 0 20 -44 18 -63 -4z"/>
<path d="M10783 74 c-10 -26 10 -69 32 -69 27 0 32 41 9 66 -21 23 -33 24 -41
3z"/>
</g>
</svg>
